<svg xmlns="http://www.w3.org/2000/svg" viewBox="0 0 433 433" width="433" height="433"><defs><clipPath id="logo-clip"><circle cx="216.5" cy="216.5" r="210"/></clipPath></defs><g clip-path="url(#logo-clip)"><circle cx="216.5" cy="216.5" r="206" fill="#FFFFFF"/><path d="M211 17h13l12 1v2l-3 5-3 5-2 4-2 3-3 5-3 5-3 5-2 4-2 3-3 5-3 5-2 4-2 3-3 5-2 4-2 3-3 5-3 5-2 4-2 3-3 5-3 5-2 4-2 3-3 5-3 5-2 4-2 3-3 5-3 5-2 4-2 3-3 5-3 5-2 4-2 3-3 5-2 4-2 3-3 5-2 3h-1l-3-5-3-5-2-3-3-5-3-5-3-5-3-5-3-5-3-5-3-5-3-5-3-5-3-5-3-5-3-5-3-5-2-3-3-5-3-5-3-5-3-5-3-5-1-3L86 66l3-2 3-3 3-2 4-3 4-3 4-3 5-3 5-3 5-3 14-7 5-2 5-2 8-3 14-4 14-3 14-2ZM37 299h200v2l-2 4-2 3-2 4-2 3-2 4-2 3-2 4-2 3-3 5-2 4-2 3-2 4-2 3-2 4-2 3-2 4-2 3-2 4-2 3-2 4-2 3-2 4-2 3-2 4-2 3-2 4-2 3-2 4-2 3-2 4 1 1v1h-5l-14-4-12-4-7-3-7-3-10-5-3-2-4-2-4-3-4-2-4-3-4-3-4-3-4-3-3-3-3-2L67 347l-2-3-3-3-2-3-3-4-3-4-3-4-2-4-3-4-3-6-2-3-4-8ZM299 240h1l2 3 3 5 3 5 2 4 2 3 2 4 2 3 2 4 2 3 3 5 2 4 2 3 2 4 2 3 2 4 2 3 3 5 2 4 2 3 2 4 2 3 2 4 2 3 3 5 2 4 2 3 2 4 2 3 2 4v2l-15 15-3 2-3 3-3 2-4 3-4 3-4 3-5 3-5 3-5 3-14 7-13 5-5 2-14 4-14 3-14 2-15 1h-11l-12-1v-2l3-5 2-4 2-3 2-4 2-3 2-4 2-3 2-4 2-3 3-5 2-4 2-3 2-4 2-3 2-4 2-3 2-4 2-3 2-4 2-3 2-4 2-3 2-4 2-3 2-4 2-3 2-4 2-3 2-4 2-3 3-5 3-6 2-3 3-5 2-4 2-3 2-4 2-3 2-4 2-3 2-4 2-3 2-4 2-3 2-4 2-3ZM280 156h126l1 1 3 10 3 14 2 14 1 15v12l-1 15-2 14-3 14-3 10-4 12-3 7-3 7-5 10-2 3-2 4-3 4-2 4-3 4h-1l-3-5-2-4-2-3-2-4-2-3-2-4-2-3-3-5-2-4-2-3-2-4-2-3-2-4-2-3-3-5-2-4-2-3-2-4-2-3-2-4-2-3-3-5-2-4-2-3-2-4-2-3-2-4-2-3-2-4-2-3-2-4-2-3-3-5-2-4-2-3-2-4-2-3-2-4-2-3-3-5-2-4-2-3-2-4-2-3-2-4-2-3-1-2ZM261 23h5l13 4 9 3 7 3 7 3 10 5 3 2 4 2 3 2 5 3 4 3 4 3 4 3 4 3 3 3 3 2 18 18 2 3 3 3 2 3 3 4 3 4 3 4 2 4 3 4 3 6 2 3 3 6v3H198v-2l3-5 3-5 3-5 2-4 2-3 3-5 3-5 2-4 2-3 3-5 3-5 2-4 2-3 3-5 2-4 2-3 3-5 3-5 2-4 2-3 3-5 3-5 2-4 2-3ZM52 105h1l3 5 2 4 3 4 2 4 2 3 3 5 3 5 3 5 3 5 3 5 3 5 3 5 3 5 3 5 3 5 3 5 3 5 3 5 3 5 3 5 2 3 3 5 3 5 3 5 3 5 3 5 3 5 3 5 3 5 3 5 3 5 3 5 3 5 3 5 2 3 1 2v2H27l-3-10-3-14-2-14-1-13v-14l1-15 2-14 3-14 4-14 4-11 2-4 2-5 7-14 2-3 3-5 3-5Z" fill="#f86800"/><path d="M217 135h3l3 1 1 1 1 3v18l6-3 2-2 5-2h3l3 1 2 3v5l-2 3-4 2-3 2-4 2-3 2-3 2-1 1-1 31 8-4 3-2 4-2 3-2 4-2 3-2 2-1 1-24 3-3h6l3 2 1 3 1 13 6-3 3-2 4-2 1-1h6l2 2 1 2v5l-1 2-4 2-4 3-6 3h-2l1 2 5 3 4 2 3 3 1 2v4l-3 3-2 1h-3l-6-3-3-2-4-2-3-2-2-1h-3l-4 2-3 2-4 2-3 2-4 2-3 2-3 2h-2v2h2l5 3 6 3 3 2 5 3 4 2 1 1h2l6-3 3-2 4-2 3-2 2-1h5l3 2 1 3v3l-2 3-3 2-5 3-2 1h-2l1 2 5 3 4 2 3 2 3 2 1 2v5l-2 3-3 1h-2l-5-2-5-3-5-3-2-1v14l-2 4-2 1h-5l-3-2-1-2-1-23-3-2-4-2-3-2-4-2-3-2-4-2-3-2-2-1v31l3 2 5 3 4 2 3 2 3 2 2 3v5l-1 2-2 1h-7l-3-2-5-3-3-1v18l-2 3-3 2-5-1-2-2-1-20h-1l-3 2-4 2-3 2h-7l-2-2-1-2v-4l2-3 5-3 4-2 3-2 4-2 3-2v-31l-3 1-3 2-4 2-3 2-4 2-3 2-4 2-3 2-1 24-3 3h-6l-3-3v-16l-3 1-3 2-4 2-3 2-4 2h-3l-3-2-2-2v-4l2-3 2-2 4-2 3-2 4-2 2-2-4-2-3-2-4-2-2-2v-7l1-2 2-1h5l6 3 3 2 4 2 3 2 2 1h2l3-2 6-3 3-2 4-2 4-3 3-1 1-1h2l-1-2-6-3-3-2-5-3-5-3-4-2-1-1h-4l-5 3-5 3-4 2-1 1-3 1h-2l-3-1-2-2v-7l2-2 3-2 1-1 5-2 2-3h-2l-5-3-5-3-3-2-2-3v-3l1-3 3-2h6l4 3 6 3 3 2 2 1v-16l1-2 2-1h6l2 1 1 2 1 23 4 3 4 2 3 2 5 3 4 2 3 2 5 2v-32h-2l-4-2-3-2-4-2-3-2-5-3-1-3v-3l2-3 3-2h3l8 4 3 2 3 1v-20l2-2Z" fill="#0090f7"/><path d="M203 4h27l11 1 14 2 14 3 14 4 6 2 12 5 7 3 12 6 3 2 5 3 5 3 4 3 3 2 4 3 4 3 4 3 6 6 3 2 13 13 2 3 6 6 2 3 3 4 3 4 3 4 3 5 2 3 3 5 3 5 6 12 2 5 5 12 3 9 4 15 3 16 1 8 1 11v27l-1 11-2 14-3 14-4 14-2 6-5 12-3 7-6 12-2 3-3 5-3 5-3 4-2 3-3 4-3 4-3 4-6 6-2 3-13 13-3 2-6 6-3 2-4 3-4 3-4 3-5 3-3 2-5 3-5 3-12 6-5 2-12 5-9 3-15 4-16 3-8 1-11 1h-27l-11-1-14-2-14-3-14-4-6-2-12-5-7-3-12-6-3-2-5-3-5-3-4-3-3-2-4-3-4-3-4-3-6-6-3-2L59 360l-2-3-6-6-2-3-3-4-3-4-3-4-3-5-2-3-3-5-3-5-6-12-2-5-5-12-3-9L9 265 6 249l-1-8L4 230v-27l1-11 2-14 3-14 4-14 2-6 5-12 3-7 6-12 2-3 3-5 3-5 3-4 2-3 3-4 3-4 2-2 2-3 6-6 2-3L72 60l3-2 6-6 3-2 2-2 3-2 4-3 4-3 5-3 3-2 5-3 5-3 12-6 5-2 12-5 9-3 15-4 16-3 8-1Zm-3 6l-13 1-7 1-8 2-10 2-13 4-13 5-22 11-3 2-5 3-5 3-4 3-4 3-3 2-2 2-3 2-6 6-3 2L62 78l-2 3-5 5-2 3-2 2-3 5-2 2-3 5-2 3-3 5-3 5-10 20-5 13-4 13-3 14-1 4-1 7-1 13v38l5 29 1 4 1 2 1 5 2 5 2 6 5 12 9 18 2 3 3 5 3 5 3 4 3 4 2 3 2 2 2 3 6 6 2 3 13 13 3 2 6 6 3 2 4 3 4 3 4 3 5 3 3 2 4 2 3 2 8 4 1 1 5 2 6 3 13 5 13 4 14 3 4 1 7 1 13 1h38l29-5 4-1 2-1 5-1 5-2 6-2 12-5 18-9 3-2 4-2 4-3 5-3 2-2 3-2 4-3 4-3 6-6 3-2 13-13 2-3 6-6 2-3 2-2 3-5 2-2 3-5 3-4 3-6 2-3 9-18 5-13 2-6 1-2 1-5 1-2 2-10 4-23v-45l-2-13-1-5-1-3-2-10-4-13-5-13-4-8-1-3-2-3-4-8-2-3-2-4-3-4-3-5-2-2-3-5-3-3-2-3-5-5-2-3L355 62l-3-2-5-5-3-2-2-2-5-3-2-2-5-3-3-2-5-3-5-3-18-9-13-5-6-2-2-1-5-1-2-1-10-2-23-4Z" fill="#0090f8"/><path d="M64 56h13v1l-3 3-3 2-6 6h-1Z" fill="#f8f8f8"/><path d="M72 48h8v6l-2 2h-6ZM260 424h4v8h-8v-7ZM425 256h7v8h-8v-4Z" fill="#f8f8f8"/><path d="M380 352h4v8h-8v-4ZM96 392l3 1 4 3 4 2 1 1v1H96ZM392 96h8v12h-1l-2-3-3-5-2-3ZM176 425h2l6 1v6h-8ZM425 176h7v8h-6l-1-6Z" fill="#f8f8f8"/><path d="M24 112h7l-1 3-5 10h-1Z" fill="#f8f8f8"/><path d="M32 328h4l3 5 1 1v2h-8Z" fill="#f8f8f8"/><path d="M128 410h2l4 2 8 3v1h-14ZM410 128h6v14h-1l-4-10-1-2Z" fill="#f8f8f8"/><path d="M152 419l5 1 11 3v1h-16ZM419 152h5v16h-1l-4-15ZM16 296h4l2 5 1 3h-7ZM296 16h8v7l-3-1-5-2Z" fill="#f8f8f8"/><path d="M0 232h5v8H0Z" fill="#f8f8f8"/><path d="M112 24h8v3l-3 2-4 2h-1ZM232 0h8v5h-8Z" fill="#f8f8f8"/><path d="M241 427h7v5h-8v-4ZM428 240h4v8h-5v-7Z" fill="#f8f8f8"/><path d="M81 60h1v1h-1Zm-1 1h1v1h-1Zm-1 1h1v1h-1Zm-2 1h2v1L63 80h-1v-2ZM61 80h1v1h-1Zm-1 1h1v1h-1Z" fill="#f5f7f8"/><path d="M8 272h3l1 1 1 3v4H8Z" fill="#f8f8f8"/><path d="M272 8h8v5h-4l-3-1-1-1Z" fill="#f8f8f8"/><path d="M192 428h8v4h-8Z" fill="#f8f8f8"/><path d="M0 216h4v8H0Z" fill="#f8f8f8"/><path d="M428 192h4v8h-4ZM216 0h8v4h-8Z" fill="#f8f8f8"/><path d="M40 336h1l3 4 2 3v1h-6ZM336 40h8v6l-3-1-2-2-3-2Z" fill="#f8f8f8"/><path d="M230 428h2v4h-8v-3ZM88 386h1l4 3 3 2v1h-8ZM429 224h3v8h-4v-2ZM386 88h6v8h-1l-2-3-3-4ZM8 160h3v4l-2 9H8Z" fill="#f8f8f8"/><path d="M208 429h8v3h-8Z" fill="#f8f8f8"/><path d="M204 423h24v1h-24ZM423 204h1v24h-1ZM9 204h1v24H9Z" fill="#60b8f8"/><path d="M429 208h3v8h-3Z" fill="#f8f8f8"/><path d="M253 166h1v24h-1Z" fill="#57afef"/><path d="M204 9h24v1h-24Z" fill="#60b8f8"/><path d="M253 244h1v23h-1Z" fill="#5db0ee"/><path d="M16 136h4l-1 3-2 5h-1ZM136 16h8v1l-7 3h-1ZM432 424h1v9h-9v-1h8Z" fill="#f8f8f8"/><path d="M265 251h2l-1 15h-1Z" fill="#5bb0ee"/><path d="M265 168h1v15h-1Z" fill="#63b5f0"/><path d="M32 104h4l-1 3-2 3h-1Z" fill="#f8f8f8"/><path d="M104 32h6v1l-5 3h-1Z" fill="#f8f8f8"/><path d="M48 347h1l2 2 1 3h-4ZM347 48h5v4l-3-1-2-2Z" fill="#f8f8f8"/><path d="M80 380h1l4 3v1h-5Z" fill="#f8f8f8"/><path d="M380 80h4v5h-1l-3-4Z" fill="#f8f8f8"/><path d="M204 423h10v1h-10Z" fill="#60b8f8"/><path d="M269 422h3v2h-7v-1Z" fill="#f8f8f8"/><path d="M423 265h1v7h-2v-3Z" fill="#f8f8f8"/><path d="M423 204h1v10h-1ZM9 204h1v10H9Z" fill="#60b8f8"/><path d="M204 9h10v1h-10Z" fill="#60b8f8"/><path d="M56 356h1l2 2v2h-3Z" fill="#f8f8f8"/><path d="M356 56h4v3h-2l-2-2Z" fill="#f8f8f8"/><path d="M424 432h8v1h-8Z" fill="#f8f8f8"/><path d="M408 432h8v1h-8Z" fill="#f8f8f8"/><path d="M392 432h8v1h-8Z" fill="#f8f8f8"/><path d="M376 432h8v1h-8Z" fill="#f8f8f8"/><path d="M360 432h8v1h-8Z" fill="#f8f8f8"/><path d="M344 432h8v1h-8Z" fill="#f8f8f8"/><path d="M328 432h8v1h-8Z" fill="#f8f8f8"/><path d="M312 432h8v1h-8Z" fill="#f8f8f8"/><path d="M296 432h8v1h-8Z" fill="#f8f8f8"/><path d="M280 432h8v1h-8Z" fill="#f8f8f8"/><path d="M264 432h8v1h-8Z" fill="#f8f8f8"/><path d="M248 432h8v1h-8Z" fill="#f8f8f8"/><path d="M232 432h8v1h-8Z" fill="#f8f8f8"/><path d="M216 432h8v1h-8Z" fill="#f8f8f8"/><path d="M200 432h8v1h-8Z" fill="#f8f8f8"/><path d="M184 432h8v1h-8Z" fill="#f8f8f8"/><path d="M168 432h8v1h-8Z" fill="#f8f8f8"/><path d="M152 432h8v1h-8Z" fill="#f8f8f8"/><path d="M136 432h8v1h-8Z" fill="#f8f8f8"/><path d="M120 432h8v1h-8Z" fill="#f8f8f8"/><path d="M104 432h8v1h-8Z" fill="#f8f8f8"/><path d="M88 432h8v1h-8Z" fill="#f8f8f8"/><path d="M72 432h8v1h-8Z" fill="#f8f8f8"/><path d="M56 432h8v1h-8Z" fill="#f8f8f8"/><path d="M40 432h8v1h-8Z" fill="#f8f8f8"/><path d="M24 432h8v1h-8Z" fill="#f8f8f8"/><path d="M8 432h8v1H8Z" fill="#f8f8f8"/><path d="M432 408h1v8h-1Z" fill="#f8f8f8"/><path d="M432 392h1v8h-1Z" fill="#f8f8f8"/><path d="M432 376h1v8h-1ZM72 373l3 1 1 1v1h-4Z" fill="#f8f8f8"/><path d="M432 360h1v8h-1Z" fill="#f8f8f8"/><path d="M432 344h1v8h-1Z" fill="#f8f8f8"/><path d="M432 328h1v8h-1Z" fill="#f8f8f8"/><path d="M432 312h1v8h-1Z" fill="#f8f8f8"/><path d="M432 296h1v8h-1Z" fill="#f8f8f8"/><path d="M432 280h1v8h-1Z" fill="#f8f8f8"/><path d="M432 264h1v8h-1Z" fill="#f8f8f8"/><path d="M432 248h1v8h-1Z" fill="#f8f8f8"/><path d="M432 232h1v8h-1Z" fill="#f8f8f8"/><path d="M432 216h1v8h-1Z" fill="#f8f8f8"/><path d="M432 200h1v8h-1Z" fill="#f8f8f8"/><path d="M422 193h1v8h-1Z" fill="#d0e8f8"/><path d="M432 184h1v8h-1Z" fill="#f8f8f8"/><path d="M432 168h1v8h-1Z" fill="#f8f8f8"/><path d="M432 152h1v8h-1Z" fill="#f8f8f8"/><path d="M432 136h1v8h-1Z" fill="#f8f8f8"/><path d="M432 120h1v8h-1Z" fill="#f8f8f8"/><path d="M432 104h1v8h-1Z" fill="#f8f8f8"/><path d="M432 88h1v8h-1Z" fill="#f8f8f8"/><path d="M432 72h1v8h-1ZM373 72h3v4h-1l-2-3Z" fill="#f8f8f8"/><path d="M432 56h1v8h-1Z" fill="#f8f8f8"/><path d="M432 40h1v8h-1Z" fill="#f8f8f8"/><path d="M432 24h1v8h-1Z" fill="#f8f8f8"/><path d="M432 8h1v8h-1Z" fill="#f8f8f8"/><path d="M193 422h7v1h-7Z" fill="#7cc4f8"/><path d="M294 414h2v2h-5v-1ZM415 291h1v5h-2v-2Z" fill="#f8f8f8"/><path d="M153 200h2v1l-3 3h-1v-2Z" fill="#0390f6"/><path d="M10 193h1v7h-1Z" fill="#7cc4f8"/><path d="M289 176h2l1 1v2l-1 1h-1Z" fill="#f8f8f8"/><path d="M256 163h2v1l-3 3h-1v-2Z" fill="#0090f8"/><path d="M193 10h7v1h-7Z" fill="#7cc4f8"/><path d="M365 368h1v1h-1Zm-1 1h1v1h-1Zm-1 1h1v1h-1Zm-1 1h1v1h-1Zm-1 1h1v1h-1Zm-1 1h1v1h-1ZM64 365h1l2 2v1h-3ZM373 360h1v1h-1Zm-1 1h1v1h-1Zm-1 1h1v1h-1Zm-1 1h1v1h-1Zm-1 1h1v1h-1Zm-1 1h1v1h-1ZM24 308h1l1 2v2h-2Z" fill="#f8f8f8"/><path d="M265 251h2l-1 5h-1Z" fill="#58ade8"/><path d="M365 64h3v3h-1l-2-2ZM308 24h4v2h-2l-2-1Z" fill="#f8f8f8"/><path d="M214 423h5v1h-5Z" fill="#78c8f8"/><path d="M204 423h5v1h-5Z" fill="#40a8f8"/><path d="M233 422h5v1h-5Z" fill="#80c8f8"/><path d="M326 398h2v2h-3v-1Z" fill="#f8f8f8"/><path d="M399 325h1v3h-2v-2Z" fill="#f8f8f8"/><path d="M193 271h2v1l-2 2h-1v-2Z" fill="#0090f8"/><path d="M422 233h1v5h-1ZM10 233h1v5h-1Z" fill="#80c8f8"/><path d="M423 214h1v5h-1ZM9 214h1v5H9Z" fill="#78c8f8"/><path d="M423 204h1v5h-1ZM9 204h1v5H9Z" fill="#40a8f8"/><path d="M149 174h2v1l-2 2h-1v-2Z" fill="#0090f8"/><path d="M233 10h5v1h-5Z" fill="#80c8f8"/><path d="M214 9h5v1h-5Z" fill="#78c8f8"/><path d="M204 9h5v1h-5Z" fill="#40a8f8"/><path d="M244 421h4v1h-4Z" fill="#30a8f8"/><path d="M187 421h4v1h-4Z" fill="#d0e8f8"/><path d="M250 420h4v1h-4Z" fill="#28a0f8"/><path d="M180 420h4v1h-4Z" fill="#d0e8f8"/><path d="M256 419h4v1h-4Z" fill="#0898f8"/><path d="M120 406l3 1v1h-3Z" fill="#f8f8f8"/><path d="M191 274h1v4h-1Z" fill="#58b0f0"/><path d="M8 260h1v4H8Z" fill="#f8f8f8"/><path d="M419 256h1v4h-1ZM13 256h1v4h-1Z" fill="#0898f8"/><path d="M147 253h1v4h-1Z" fill="#48a4e4"/><path d="M420 250h1v4h-1ZM12 250h1v4h-1Z" fill="#28a0f8"/><path d="M421 244h1v4h-1ZM11 244h1v4h-1Z" fill="#30a8f8"/><path d="M286 204h1v4h-1Z" fill="#78c0f8"/><path d="M422 193h1v4h-1Z" fill="#74c4f8"/><path d="M421 187h1v4h-1ZM11 187h1v4h-1ZM420 180h1v4h-1ZM12 180h1v4h-1Z" fill="#d0e8f8"/><path d="M419 175h1v4h-1Z" fill="#f0f8f8"/><path d="M253 166h1v4h-1Z" fill="#5cb0f0"/><path d="M406 120h2v3h-1Z" fill="#f8f8f8"/><path d="M256 13h4v1h-4Z" fill="#0898f8"/><path d="M250 12h4v1h-4Z" fill="#28a0f8"/><path d="M180 12h4v1h-4Z" fill="#d0e8f8"/><path d="M244 11h4v1h-4Z" fill="#30a8f8"/><path d="M187 11h4v1h-4Z" fill="#d0e8f8"/><path d="M260 8h4v1h-4Z" fill="#f8f8f8"/><path d="M225 423h3v1h-3Z" fill="#40a8f8"/><path d="M197 422h3v1h-3Z" fill="#a8d8f8"/><path d="M265 263h1v3h-1Z" fill="#68b8f0"/><path d="M152 260h3v1h-3Z" fill="#60b0f0"/><path d="M265 251h2v1l-1 1h-1Z" fill="#50a8e8"/><path d="M286 227h1v3h-1Z" fill="#78c2f8"/><path d="M423 225h1v3h-1ZM9 225h1v3H9Z" fill="#40a8f8"/><path d="M152 223h2v1l-1 1h-1Z" fill="#0090f8"/><path d="M279 211h3v1h-3Z" fill="#60b4ec"/><path d="M10 197h1v3h-1Z" fill="#a8d8f8"/><path d="M147 178h1v3h-1Z" fill="#48a0e0"/><path d="M173 164h2v1l-1 1h-1Z" fill="#0090f8"/><path d="M191 156h1v3h-1Z" fill="#55aae8"/><path d="M238 151h3v1h-3ZM196 151h3v1h-3Z" fill="#58a8e8"/><path d="M217 135h3v1h-3Z" fill="#68b8f0"/><path d="M197 10h3v1h-3Z" fill="#a8d8f8"/><path d="M225 9h3v1h-3Z" fill="#40a8f8"/><path d="M228 423h2v1h-2Z" fill="#1098f8"/><path d="M204 423h2v1h-2Z" fill="#40a8f8"/><path d="M238 422h2v1h-2Z" fill="#30a8f8"/><path d="M233 422h2v1h-2Z" fill="#a8d8f8"/><path d="M231 422h2v1h-2ZM200 422h2v1h-2Z" fill="#dcecf8"/><path d="M193 422h2v1h-2Z" fill="#50b0f8"/><path d="M244 421h2v1h-2Z" fill="#70c0f8"/><path d="M242 421h2v1h-2Z" fill="#b0d8f8"/><path d="M187 421h2v1h-2Z" fill="#90d0f8"/><path d="M185 421h2v1h-2Z" fill="#50b0f8"/><path d="M250 420h2v1h-2Z" fill="#80c8f8"/><path d="M180 420h2v1h-2Z" fill="#78c8f8"/><path d="M256 419h2v1h-2Z" fill="#70c0f8"/><path d="M176 419h2v1h-2Z" fill="#c8e8f8"/><path d="M174 419h2v1h-2Z" fill="#70c0f8"/><path d="M261 418h2v1h-2Z" fill="#50b0f8"/><path d="M170 418h2v1h-2Z" fill="#88d0f8"/><path d="M265 417h2v1h-2Z" fill="#68b8f8"/><path d="M166 417h2v1h-2Z" fill="#98d0f8"/><path d="M269 416h2v1h-2Z" fill="#58b8f8"/><path d="M162 416h2v1h-2Z" fill="#a0d8f8"/><path d="M273 415h2v1h-2Z" fill="#38a8f8"/><path d="M159 415h2v1h-2Z" fill="#c0e0f8"/><path d="M276 414h2v1h-2Z" fill="#58b8f8"/><path d="M155 414h2v1h-2Z" fill="#a0d8f8"/><path d="M280 413h2v1h-2Z" fill="#0898f8"/><path d="M152 413h2v1h-2Z" fill="#a8d8f8"/><path d="M283 412h2v1h-2Z" fill="#0898f8"/><path d="M149 412h2v1h-2Z" fill="#a8d8f8"/><path d="M286 411h2v1h-2Z" fill="#0898f8"/><path d="M146 411h2v1h-2Z" fill="#a8d8f8"/><path d="M144 410h2v1h-2Z" fill="#f0f8f8"/><path d="M291 409h2v1h-2Z" fill="#1098f8"/><path d="M141 409h2v1h-2Z" fill="#d0e8f8"/><path d="M139 408h2v1h-2Z" fill="#f0f8f8"/><path d="M296 407h2v1h-2Z" fill="#1898f8"/><path d="M136 407h2v1h-2Z" fill="#d8f0f8"/><path d="M134 406h2v1h-2Z" fill="#f0f8f8"/><path d="M305 403h2v1h-2Z" fill="#1098f8"/><path d="M307 402h2v1h-2Z" fill="#0890f8"/><path d="M125 402h2v1h-2Z" fill="#e8f8f8"/><path d="M309 401h2v1h-2ZM320 395h2v1h-2Z" fill="#0890f8"/><path d="M107 392h2v1h-2Z" fill="#f0f8f8"/><path d="M395 320h1v2h-1Z" fill="#0890f8"/><path d="M401 309h1v2h-1ZM402 307h1v2h-1ZM30 307h1v2h-1Z" fill="#0890f8"/><path d="M403 305h1v2h-1Z" fill="#1098f8"/><path d="M29 305h1v2h-1Z" fill="#0890f8"/><path d="M407 296h1v2h-1ZM25 296h1v2h-1Z" fill="#1898f8"/><path d="M409 291h1v2h-1ZM23 291h1v2h-1Z" fill="#1098f8"/><path d="M411 286h1v2h-1ZM21 286h1v2h-1ZM412 283h1v2h-1ZM20 283h1v2h-1ZM413 280h1v2h-1Z" fill="#0898f8"/><path d="M236 281h2v1h-2Z" fill="#1898f0"/><path d="M19 280h1v2h-1Z" fill="#0898f8"/><path d="M414 276h1v2h-1ZM18 276h1v2h-1Z" fill="#58b8f8"/><path d="M225 275h2v1h-2Z" fill="#60b8f8"/><path d="M191 274h1v2h-1Z" fill="#50a8e8"/><path d="M415 273h1v2h-1ZM17 273h1v2h-1Z" fill="#38a8f8"/><path d="M416 269h1v2h-1Z" fill="#58b8f8"/><path d="M257 270h2v1h-2Z" fill="#1090f0"/><path d="M179 270h2v1h-2Z" fill="#78c8f8"/><path d="M175 270h2v1h-2Z" fill="#2898f0"/><path d="M16 269h1v2h-1Z" fill="#58b8f8"/><path d="M417 265h1v2h-1ZM15 265h1v2h-1Z" fill="#68b8f8"/><path d="M418 261h1v2h-1ZM14 261h1v2h-1Z" fill="#50b0f8"/><path d="M283 260h2v1h-2Z" fill="#68b8f0"/><path d="M419 256h1v2h-1Z" fill="#70c0f8"/><path d="M276 257h2v1h-2Z" fill="#1090f0"/><path d="M13 256h1v2h-1Z" fill="#70c0f8"/><path d="M420 250h1v2h-1ZM12 250h1v2h-1Z" fill="#80c8f8"/><path d="M421 244h1v2h-1ZM11 244h1v2h-1Z" fill="#70c0f8"/><path d="M421 242h1v2h-1ZM11 242h1v2h-1Z" fill="#b0d8f8"/><path d="M422 238h1v2h-1ZM10 238h1v2h-1Z" fill="#30a8f8"/><path d="M422 233h1v2h-1ZM10 233h1v2h-1Z" fill="#a8d8f8"/><path d="M422 231h1v2h-1ZM10 231h1v2h-1Z" fill="#dcecf8"/><path d="M180 231h2v1h-2Z" fill="#2898f0"/><path d="M423 228h1v2h-1ZM9 228h1v2H9Z" fill="#1098f8"/><path d="M212 227h1v2h-1Z" fill="#68c0f8"/><path d="M278 222h2v1h-2Z" fill="#0890f0"/><path d="M154 222h2v1h-2Z" fill="#1898f0"/><path d="M199 220h2v1h-2Z" fill="#2898f0"/><path d="M231 216h1v2h-1Z" fill="#2098f0"/><path d="M205 216h1v2h-1Z" fill="#50b0f8"/><path d="M198 212h2v1h-2Z" fill="#1090f0"/><path d="M156 211h2v1h-2Z" fill="#68b8f8"/><path d="M423 204h1v2h-1Z" fill="#38a8f8"/><path d="M225 205h2v1h-2Z" fill="#2098f0"/><path d="M211 205h2v1h-2Z" fill="#64bcf8"/><path d="M9 204h1v2H9Z" fill="#40a8f8"/><path d="M227 204h2v1h-2Z" fill="#1090f0"/><path d="M10 200h1v2h-1Z" fill="#dcecf8"/><path d="M234 200h2v1h-2Z" fill="#0890f0"/><path d="M177 200h2v1h-2Z" fill="#2098f0"/><path d="M422 197h1v2h-1Z" fill="#a8d8f8"/><path d="M157 197h2v1h-2Z" fill="#58b0f8"/><path d="M422 193h1v2h-1ZM10 193h1v2h-1Z" fill="#50b0f8"/><path d="M164 193h2v1h-2Z" fill="#38a8f0"/><path d="M160 190h2v1h-2Z" fill="#0890f0"/><path d="M421 187h1v2h-1Z" fill="#88d0f8"/><path d="M11 187h1v2h-1Z" fill="#90d0f8"/><path d="M421 185h1v2h-1ZM11 185h1v2h-1Z" fill="#50b0f8"/><path d="M420 180h1v2h-1ZM12 180h1v2h-1Z" fill="#78c8f8"/><path d="M13 176h1v2h-1Z" fill="#c8e8f8"/><path d="M419 175h1v2h-1Z" fill="#98d0f8"/><path d="M253 174h1v2h-1Z" fill="#54a8e8"/><path d="M13 174h1v2h-1Z" fill="#70c0f8"/><path d="M285 173h2v1h-2Z" fill="#78c0f8"/><path d="M281 173h2v1h-2Z" fill="#30a0f0"/><path d="M155 173h2v1h-2Z" fill="#80c0f8"/><path d="M151 173h2v1h-2Z" fill="#1090f0"/><path d="M418 170h1v2h-1ZM14 170h1v2h-1Z" fill="#88d0f8"/><path d="M265 168h1v2h-1Z" fill="#64b8f4"/><path d="M417 166h1v2h-1Z" fill="#98d0f8"/><path d="M253 166h1v2h-1Z" fill="#68b8f0"/><path d="M183 166h1v2h-1Z" fill="#1090f0"/><path d="M15 166h1v2h-1Z" fill="#98d0f8"/><path d="M416 162h1v2h-1ZM16 162h1v2h-1Z" fill="#a0d8f8"/><path d="M415 159h1v2h-1ZM17 159h1v2h-1Z" fill="#c0e0f8"/><path d="M225 158h2v1h-2Z" fill="#1090f0"/><path d="M211 158h2v1h-2Z" fill="#60b8f8"/><path d="M414 155h1v2h-1Z" fill="#a0d8f8"/><path d="M245 155h1v2h-1Z" fill="#0890f0"/><path d="M18 155h1v2h-1Z" fill="#a0d8f8"/><path d="M413 152h1v2h-1Z" fill="#a8d8f8"/><path d="M233 153h2v1h-2Z" fill="#48a8f0"/><path d="M19 152h1v2h-1ZM412 149h1v2h-1ZM20 149h1v2h-1ZM411 146h1v2h-1ZM21 146h1v2h-1Z" fill="#a8d8f8"/><path d="M410 144h1v2h-1ZM22 144h1v2h-1Z" fill="#f0f8f8"/><path d="M409 141h1v2h-1ZM23 141h1v2h-1Z" fill="#d0e8f8"/><path d="M408 139h1v2h-1ZM24 139h1v2h-1Z" fill="#f0f8f8"/><path d="M407 136h1v2h-1ZM25 136h1v2h-1Z" fill="#d8f0f8"/><path d="M406 134h1v2h-1ZM26 134h1v2h-1Z" fill="#f0f8f8"/><path d="M402 125h1v2h-1Z" fill="#e8f8f8"/><path d="M392 107h1v2h-1Z" fill="#f0f8f8"/><path d="M307 30h2v1h-2ZM305 29h2v1h-2Z" fill="#0890f8"/><path d="M134 26h2v1h-2Z" fill="#f0f8f8"/><path d="M296 25h2v1h-2Z" fill="#1898f8"/><path d="M136 25h2v1h-2Z" fill="#d8f0f8"/><path d="M139 24h2v1h-2Z" fill="#f0f8f8"/><path d="M291 23h2v1h-2Z" fill="#1098f8"/><path d="M141 23h2v1h-2Z" fill="#d0e8f8"/><path d="M144 22h2v1h-2Z" fill="#f0f8f8"/><path d="M286 21h2v1h-2Z" fill="#0898f8"/><path d="M146 21h2v1h-2Z" fill="#a8d8f8"/><path d="M283 20h2v1h-2Z" fill="#0898f8"/><path d="M149 20h2v1h-2Z" fill="#a8d8f8"/><path d="M280 19h2v1h-2Z" fill="#0898f8"/><path d="M152 19h2v1h-2Z" fill="#a8d8f8"/><path d="M276 18h2v1h-2Z" fill="#58b8f8"/><path d="M155 18h2v1h-2Z" fill="#a0d8f8"/><path d="M273 17h2v1h-2Z" fill="#38a8f8"/><path d="M159 17h2v1h-2Z" fill="#c0e0f8"/><path d="M269 16h2v1h-2Z" fill="#58b8f8"/><path d="M162 16h2v1h-2Z" fill="#a0d8f8"/><path d="M265 15h2v1h-2Z" fill="#68b8f8"/><path d="M166 15h2v1h-2Z" fill="#98d0f8"/><path d="M261 14h2v1h-2Z" fill="#50b0f8"/><path d="M170 14h2v1h-2Z" fill="#88d0f8"/><path d="M256 13h2v1h-2Z" fill="#70c0f8"/><path d="M176 13h2v1h-2Z" fill="#c8e8f8"/><path d="M174 13h2v1h-2Z" fill="#70c0f8"/><path d="M250 12h2v1h-2Z" fill="#80c8f8"/><path d="M180 12h2v1h-2Z" fill="#78c8f8"/><path d="M244 11h2v1h-2Z" fill="#70c0f8"/><path d="M242 11h2v1h-2Z" fill="#b0d8f8"/><path d="M187 11h2v1h-2Z" fill="#90d0f8"/><path d="M185 11h2v1h-2Z" fill="#50b0f8"/><path d="M238 10h2v1h-2Z" fill="#30a8f8"/><path d="M233 10h2v1h-2Z" fill="#a8d8f8"/><path d="M231 10h2v1h-2ZM200 10h2v1h-2Z" fill="#dcecf8"/><path d="M193 10h2v1h-2Z" fill="#50b0f8"/><path d="M228 9h2v1h-2Z" fill="#1098f8"/><path d="M204 9h2v1h-2Z" fill="#40a8f8"/><path d="M228 423h1v1h-1Z" fill="#20a0f8"/><path d="M224 423h1v1h-1ZM208 423h1v1h-1Z" fill="#50b0f8"/><path d="M204 423h1v1h-1Z" fill="#20a0f8"/><path d="M203 423h1v1h-1ZM240 422h1v1h-1Z" fill="#1098f8"/><path d="M238 422h1v1h-1Z" fill="#50b0f8"/><path d="M237 422h1v1h-1Z" fill="#70c0f8"/><path d="M235 422h1v1h-1Z" fill="#98d0f8"/><path d="M233 422h1v1h-1ZM199 422h1v1h-1Z" fill="#b8e0f8"/><path d="M197 422h1v1h-1Z" fill="#98d0f8"/><path d="M193 422h1v1h-1Z" fill="#30a8f8"/><path d="M192 422h1v1h-1Z" fill="#1098f8"/><path d="M246 421h1v1h-1Z" fill="#50b0f8"/><path d="M244 421h1v1h-1Z" fill="#90d0f8"/><path d="M242 421h1v1h-1Z" fill="#d0e8f8"/><path d="M189 421h1v1h-1Z" fill="#b0d8f8"/><path d="M187 421h1v1h-1Z" fill="#70c0f8"/><path d="M185 421h1v1h-1Z" fill="#30a8f8"/><path d="M252 420h1v1h-1Z" fill="#50b0f8"/><path d="M250 420h1v1h-1Z" fill="#a8d8f8"/><path d="M249 420h1v1h-1Z" fill="#d8f0f8"/><path d="M182 420h1v1h-1Z" fill="#a8d8f8"/><path d="M180 420h1v1h-1Z" fill="#50b0f8"/><path d="M179 420h1v1h-1Z" fill="#28a0f8"/><path d="M258 419h1v1h-1Z" fill="#40a8f8"/><path d="M256 419h1v1h-1Z" fill="#98d0f8"/><path d="M255 419h1v1h-1Z" fill="#c8e8f8"/><path d="M176 419h1v1h-1Z" fill="#98d0f8"/><path d="M174 419h1v1h-1Z" fill="#40a8f8"/><path d="M263 418h1v1h-1Z" fill="#1898f8"/><path d="M261 418h1v1h-1Z" fill="#88d0f8"/><path d="M260 418h1v1h-1Z" fill="#c8e8f8"/><path d="M172 418h1v1h-1Z" fill="#c0e0f8"/><path d="M170 418h1v1h-1Z" fill="#50b0f8"/><path d="M169 418h1v1h-1Z" fill="#1898f8"/><path d="M267 417h1v1h-1Z" fill="#30a8f8"/><path d="M265 417h1v1h-1Z" fill="#a0d8f8"/><path d="M264 417h1v1h-1Z" fill="#d8f0f8"/><path d="M168 417h1v1h-1Z" fill="#d8e8f8"/><path d="M166 417h1v1h-1Z" fill="#68b8f8"/><path d="M165 417h1v1h-1Z" fill="#28a0f8"/><path d="M271 416h1v1h-1Z" fill="#1098f8"/><path d="M269 416h1v1h-1Z" fill="#a0d8f8"/><path d="M268 416h1v1h-1ZM164 416h1v1h-1Z" fill="#e8f0f8"/><path d="M162 416h1v1h-1Z" fill="#58b8f8"/><path d="M161 416h1v1h-1Z" fill="#1098f8"/><path d="M273 415h1v1h-1Z" fill="#78c8f8"/><path d="M272 415h1v1h-1Z" fill="#c0e0f8"/><path d="M159 415h1v1h-1Z" fill="#78c8f8"/><path d="M158 415h1v1h-1Z" fill="#38a8f8"/><path d="M276 414h1v1h-1Z" fill="#a0d8f8"/><path d="M275 414h1v1h-1ZM157 414h1v1h-1Z" fill="#e8f0f8"/><path d="M155 414h1v1h-1Z" fill="#58b8f8"/><path d="M154 414h1v1h-1Z" fill="#1098f8"/><path d="M280 413h1v1h-1Z" fill="#58b8f8"/><path d="M279 413h1v1h-1Z" fill="#a8d8f8"/><path d="M152 413h1v1h-1ZM283 412h1v1h-1Z" fill="#58b8f8"/><path d="M282 412h1v1h-1Z" fill="#a8d8f8"/><path d="M149 412h1v1h-1ZM286 411h1v1h-1Z" fill="#58b8f8"/><path d="M285 411h1v1h-1Z" fill="#a8d8f8"/><path d="M146 411h1v1h-1Z" fill="#58b8f8"/><path d="M289 410h1v1h-1Z" fill="#38a8f8"/><path d="M288 410h1v1h-1Z" fill="#98d0f8"/><path d="M177 410h1v1h-1Z" fill="#886850"/><path d="M144 410h1v1h-1Z" fill="#98d0f8"/><path d="M143 410h1v1h-1Z" fill="#38a8f8"/><path d="M291 409h1v1h-1Z" fill="#70c0f8"/><path d="M290 409h1v1h-1Z" fill="#d0e8f8"/><path d="M141 409h1v1h-1Z" fill="#70c0f8"/><path d="M140 409h1v1h-1Z" fill="#1098f8"/><path d="M294 408h1v1h-1Z" fill="#48b0f8"/><path d="M293 408h1v1h-1Z" fill="#a8d8f8"/><path d="M139 408h1v1h-1Z" fill="#a0d8f8"/><path d="M138 408h1v1h-1Z" fill="#40a8f8"/><path d="M296 407h1v1h-1Z" fill="#78c8f8"/><path d="M295 407h1v1h-1Z" fill="#d8f0f8"/><path d="M136 407h1v1h-1Z" fill="#78c0f8"/><path d="M135 407h1v1h-1Z" fill="#1898f8"/><path d="M299 406h1v1h-1Z" fill="#30a8f8"/><path d="M298 406h1v1h-1ZM134 406h1v1h-1Z" fill="#98d0f8"/><path d="M133 406h1v1h-1Z" fill="#28a0f8"/><path d="M301 405h1v1h-1Z" fill="#48b0f8"/><path d="M300 405h1v1h-1Z" fill="#b0e0f8"/><path d="M132 405h1v1h-1Z" fill="#b0d8f8"/><path d="M131 405h1v1h-1Z" fill="#40a8f8"/><path d="M303 404h1v1h-1Z" fill="#60b8f8"/><path d="M302 404h1v1h-1ZM130 404h1v1h-1Z" fill="#c8e8f8"/><path d="M129 404h1v1h-1Z" fill="#58b8f8"/><path d="M305 403h1v1h-1Z" fill="#70c0f8"/><path d="M304 403h1v1h-1ZM128 403h1v1h-1Z" fill="#e0f0f8"/><path d="M127 403h1v1h-1Z" fill="#70c0f8"/><path d="M126 403h1v1h-1Z" fill="#1098f8"/><path d="M307 402h1v1h-1ZM125 402h1v1h-1Z" fill="#78c8f8"/><path d="M309 401h1v1h-1Z" fill="#70c0f8"/><path d="M308 401h1v1h-1ZM124 401h1v1h-1Z" fill="#e0f0f8"/><path d="M123 401h1v1h-1Z" fill="#70c0f8"/><path d="M311 400h1v1h-1Z" fill="#68b8f8"/><path d="M310 400h1v1h-1ZM122 400h1v1h-1Z" fill="#e0f0f8"/><path d="M121 400h1v1h-1Z" fill="#68b8f8"/><path d="M313 399h1v1h-1Z" fill="#60b8f8"/><path d="M312 399h1v1h-1ZM120 399h1v1h-1Z" fill="#d8e8f8"/><path d="M119 399h1v1h-1Z" fill="#60b8f8"/><path d="M315 398h1v1h-1Z" fill="#50b0f8"/><path d="M314 398h1v1h-1ZM118 398h1v1h-1Z" fill="#d8e8f8"/><path d="M117 398h1v1h-1Z" fill="#50b0f8"/><path d="M317 397h1v1h-1Z" fill="#30a8f8"/><path d="M316 397h1v1h-1ZM116 397h1v1h-1Z" fill="#b8e0f8"/><path d="M115 397h1v1h-1Z" fill="#30a8f8"/><path d="M319 396h1v1h-1Z" fill="#1898f8"/><path d="M318 396h1v1h-1ZM114 396h1v1h-1Z" fill="#98d0f8"/><path d="M113 396h1v1h-1Z" fill="#1898f8"/><path d="M320 395h1v1h-1Z" fill="#78c8f8"/><path d="M112 395h1v1h-1Z" fill="#78c0f8"/><path d="M322 394h1v1h-1Z" fill="#58b8f8"/><path d="M321 394h1v1h-1Z" fill="#d8f0f8"/><path d="M111 394h1v1h-1Z" fill="#d8e8f8"/><path d="M110 394h1v1h-1Z" fill="#50b0f8"/><path d="M324 393h1v1h-1Z" fill="#30a8f8"/><path d="M323 393h1v1h-1Z" fill="#c0e0f8"/><path d="M109 393h1v1h-1Z" fill="#b8e0f8"/><path d="M108 393h1v1h-1Z" fill="#28a0f8"/><path d="M325 392h1v1h-1Z" fill="#80c8f8"/><path d="M107 392h1v1h-1Z" fill="#78c8f8"/><path d="M327 391h1v1h-1Z" fill="#38a8f8"/><path d="M326 391h1v1h-1ZM106 391h1v1h-1Z" fill="#d0e8f8"/><path d="M105 391h1v1h-1Z" fill="#38a8f8"/><path d="M329 390h1v1h-1Z" fill="#1098f8"/><path d="M328 390h1v1h-1ZM104 390h1v1h-1Z" fill="#90d0f8"/><path d="M330 389h1v1h-1Z" fill="#50b0f8"/><path d="M329 389h1v1h-1ZM103 389h1v1h-1Z" fill="#e0f0f8"/><path d="M102 389h1v1h-1Z" fill="#48b0f8"/><path d="M332 388h1v1h-1Z" fill="#1098f8"/><path d="M331 388h1v1h-1ZM101 388h1v1h-1Z" fill="#a8d8f8"/><path d="M100 388h1v1h-1Z" fill="#1098f8"/><path d="M333 387h1v1h-1Z" fill="#48b0f8"/><path d="M332 387h1v1h-1ZM100 387h1v1h-1Z" fill="#e8f0f8"/><path d="M99 387h1v1h-1Z" fill="#48b0f8"/><path d="M334 386h1v1h-1ZM98 386h1v1h-1Z" fill="#90d0f8"/><path d="M336 385h1v1h-1Z" fill="#30a8f8"/><path d="M335 385h1v1h-1ZM97 385h1v1h-1Z" fill="#d0e8f8"/><path d="M96 385h1v1h-1Z" fill="#30a8f8"/><path d="M337 384h1v1h-1ZM95 384h1v1h-1Z" fill="#70c0f8"/><path d="M339 383h1v1h-1Z" fill="#1898f8"/><path d="M338 383h1v1h-1ZM94 383h1v1h-1Z" fill="#b0e0f8"/><path d="M93 383h1v1h-1Z" fill="#1898f8"/><path d="M340 382h1v1h-1Z" fill="#48b0f8"/><path d="M339 382h1v1h-1ZM93 382h1v1h-1Z" fill="#e8f0f8"/><path d="M92 382h1v1h-1Z" fill="#48b0f8"/><path d="M341 381h1v1h-1ZM91 381h1v1h-1Z" fill="#78c8f8"/><path d="M343 380h1v1h-1Z" fill="#1098f8"/><path d="M342 380h1v1h-1ZM90 380h1v1h-1Z" fill="#b0d8f8"/><path d="M89 380h1v1h-1Z" fill="#1098f8"/><path d="M344 379h1v1h-1Z" fill="#30a8f8"/><path d="M343 379h1v1h-1ZM89 379h1v1h-1Z" fill="#d8e8f8"/><path d="M88 379h1v1h-1Z" fill="#30a8f8"/><path d="M345 378h1v1h-1ZM87 378h1v1h-1Z" fill="#58b8f8"/><path d="M346 377h1v1h-1ZM86 377h1v1h-1Z" fill="#90d0f8"/><path d="M348 376h1v1h-1Z" fill="#1898f8"/><path d="M347 376h1v1h-1ZM85 376h1v1h-1Z" fill="#c0e0f8"/><path d="M84 376h1v1h-1Z" fill="#1898f8"/><path d="M349 375h1v1h-1Z" fill="#28a0f8"/><path d="M348 375h1v1h-1ZM84 375h1v1h-1Z" fill="#d8e8f8"/><path d="M83 375h1v1h-1Z" fill="#28a0f8"/><path d="M350 374h1v1h-1Z" fill="#30a8f8"/><path d="M349 374h1v1h-1ZM83 374h1v1h-1Z" fill="#e0f0f8"/><path d="M82 374h1v1h-1Z" fill="#30a8f8"/><path d="M351 373h1v1h-1ZM81 373h1v1h-1Z" fill="#40a8f8"/><path d="M352 372h1v1h-1ZM80 372h1v1h-1Z" fill="#50b0f8"/><path d="M353 371h1v1h-1ZM79 371h1v1h-1Z" fill="#68c0f8"/><path d="M354 370h1v1h-1ZM78 370h1v1h-1Z" fill="#78c8f8"/><path d="M355 369h1v1h-1ZM77 369h1v1h-1Z" fill="#90d0f8"/><path d="M356 368h1v1h-1ZM76 368h1v1h-1Z" fill="#a8d8f8"/><path d="M357 367h1v1h-1ZM75 367h1v1h-1Z" fill="#c0e0f8"/><path d="M359 366h1v1h-1Z" fill="#1898f8"/><path d="M358 366h1v1h-1ZM74 366h1v1h-1Z" fill="#c8e8f8"/><path d="M73 366h1v1h-1Z" fill="#1898f8"/><path d="M360 365h1v1h-1Z" fill="#20a0f8"/><path d="M359 365h1v1h-1ZM73 365h1v1h-1Z" fill="#d0e8f8"/><path d="M72 365h1v1h-1Z" fill="#20a0f8"/><path d="M361 364h1v1h-1Z" fill="#28a0f8"/><path d="M360 364h1v1h-1ZM72 364h1v1h-1Z" fill="#e0f0f8"/><path d="M71 364h1v1h-1Z" fill="#28a0f8"/><path d="M362 363h1v1h-1ZM70 363h1v1h-1ZM363 362h1v1h-1ZM69 362h1v1h-1Z" fill="#38a8f8"/><path d="M364 361h1v1h-1ZM68 361h1v1h-1Z" fill="#28a0f8"/><path d="M365 360h1v1h-1Z" fill="#20a0f8"/><path d="M364 360h1v1h-1ZM68 360h1v1h-1Z" fill="#e0f0f8"/><path d="M67 360h1v1h-1Z" fill="#20a0f8"/><path d="M366 359h1v1h-1Z" fill="#1898f8"/><path d="M365 359h1v1h-1ZM67 359h1v1h-1Z" fill="#d0e8f8"/><path d="M66 359h1v1h-1Z" fill="#1898f8"/><path d="M366 358h1v1h-1ZM66 358h1v1h-1Z" fill="#c8e8f8"/><path d="M367 357h1v1h-1ZM65 357h1v1h-1Z" fill="#c0e0f8"/><path d="M368 356h1v1h-1ZM64 356h1v1h-1Z" fill="#a8d8f8"/><path d="M369 355h1v1h-1ZM63 355h1v1h-1Z" fill="#90d0f8"/><path d="M370 354h1v1h-1ZM62 354h1v1h-1Z" fill="#78c8f8"/><path d="M371 353h1v1h-1ZM61 353h1v1h-1Z" fill="#68c0f8"/><path d="M372 352h1v1h-1ZM60 352h1v1h-1Z" fill="#50b0f8"/><path d="M373 351h1v1h-1ZM59 351h1v1h-1Z" fill="#40a8f8"/><path d="M374 350h1v1h-1ZM58 350h1v1h-1Z" fill="#30a8f8"/><path d="M375 349h1v1h-1Z" fill="#28a0f8"/><path d="M374 349h1v1h-1ZM58 349h1v1h-1Z" fill="#e0f0f8"/><path d="M57 349h1v1h-1Z" fill="#28a0f8"/><path d="M376 348h1v1h-1Z" fill="#1898f8"/><path d="M375 348h1v1h-1ZM57 348h1v1h-1Z" fill="#d8e8f8"/><path d="M56 348h1v1h-1Z" fill="#1898f8"/><path d="M376 347h1v1h-1ZM56 347h1v1h-1Z" fill="#c0e0f8"/><path d="M377 346h1v1h-1ZM55 346h1v1h-1Z" fill="#90d0f8"/><path d="M378 345h1v1h-1ZM54 345h1v1h-1Z" fill="#58b8f8"/><path d="M379 344h1v1h-1ZM53 344h1v1h-1Z" fill="#30a8f8"/><path d="M380 343h1v1h-1Z" fill="#1098f8"/><path d="M379 343h1v1h-1ZM53 343h1v1h-1Z" fill="#d8e8f8"/><path d="M52 343h1v1h-1Z" fill="#1098f8"/><path d="M380 342h1v1h-1ZM52 342h1v1h-1Z" fill="#b0d8f8"/><path d="M381 341h1v1h-1ZM51 341h1v1h-1Z" fill="#78c8f8"/><path d="M382 340h1v1h-1ZM50 340h1v1h-1Z" fill="#48b0f8"/><path d="M383 339h1v1h-1Z" fill="#1898f8"/><path d="M382 339h1v1h-1Z" fill="#e8f0f8"/><path d="M50 339h1v1h-1Z" fill="#e0f0f8"/><path d="M49 339h1v1h-1Z" fill="#1098f8"/><path d="M383 338h1v1h-1Z" fill="#b0e0f8"/><path d="M49 338h1v1h-1Z" fill="#b0d8f8"/><path d="M384 337h1v1h-1Z" fill="#70c0f8"/><path d="M48 337h1v1h-1Z" fill="#68c0f8"/><path d="M385 336h1v1h-1Z" fill="#30a8f8"/><path d="M47 336h1v1h-1Z" fill="#28a0f8"/><path d="M385 335h1v1h-1Z" fill="#d0e8f8"/><path d="M47 335h1v1h-1Z" fill="#c8e8f8"/><path d="M386 334h1v1h-1Z" fill="#90d0f8"/><path d="M46 334h1v1h-1Z" fill="#80c8f8"/><path d="M387 333h1v1h-1Z" fill="#48b0f8"/><path d="M45 333h1v1h-1Z" fill="#40a8f8"/><path d="M388 332h1v1h-1Z" fill="#1098f8"/><path d="M387 332h1v1h-1Z" fill="#e8f0f8"/><path d="M45 332h1v1h-1Z" fill="#e0f0f8"/><path d="M44 332h1v1h-1Z" fill="#1098f8"/><path d="M388 331h1v1h-1Z" fill="#a8d8f8"/><path d="M44 331h1v1h-1Z" fill="#98d0f8"/><path d="M389 330h1v1h-1Z" fill="#50b0f8"/><path d="M43 330h1v1h-1Z" fill="#40a8f8"/><path d="M390 329h1v1h-1Z" fill="#1098f8"/><path d="M389 329h1v1h-1Z" fill="#e0f0f8"/><path d="M43 329h1v1h-1Z" fill="#d8e8f8"/><path d="M390 328h1v1h-1Z" fill="#90d0f8"/><path d="M42 328h1v1h-1Z" fill="#80c8f8"/><path d="M391 327h1v1h-1Z" fill="#38a8f8"/><path d="M41 327h1v1h-1Z" fill="#30a8f8"/><path d="M391 326h1v1h-1Z" fill="#d0e8f8"/><path d="M41 326h1v1h-1Z" fill="#c8e8f8"/><path d="M392 325h1v1h-1Z" fill="#80c8f8"/><path d="M40 325h1v1h-1Z" fill="#70c0f8"/><path d="M393 324h1v1h-1Z" fill="#30a8f8"/><path d="M39 324h1v1h-1Z" fill="#20a0f8"/><path d="M393 323h1v1h-1Z" fill="#c0e0f8"/><path d="M39 323h1v1h-1Z" fill="#b0e0f8"/><path d="M394 322h1v1h-1Z" fill="#58b8f8"/><path d="M38 322h1v1h-1Z" fill="#48b0f8"/><path d="M394 321h1v1h-1Z" fill="#d8f0f8"/><path d="M38 321h1v1h-1Z" fill="#d0e8f8"/><path d="M395 320h1v1h-1Z" fill="#78c8f8"/><path d="M37 320h1v1h-1Z" fill="#70c0f8"/><path d="M396 319h1v1h-1Z" fill="#1898f8"/><path d="M36 319h1v1h-1Z" fill="#1098f8"/><path d="M396 318h1v1h-1Z" fill="#98d0f8"/><path d="M36 318h1v1h-1Z" fill="#90d0f8"/><path d="M397 317h1v1h-1Z" fill="#30a8f8"/><path d="M35 317h1v1h-1Z" fill="#28a0f8"/><path d="M397 316h1v1h-1ZM35 316h1v1h-1Z" fill="#b8e0f8"/><path d="M398 315h1v1h-1ZM34 315h1v1h-1Z" fill="#50b0f8"/><path d="M398 314h1v1h-1ZM34 314h1v1h-1Z" fill="#d8e8f8"/><path d="M399 313h1v1h-1ZM33 313h1v1h-1Z" fill="#60b8f8"/><path d="M399 312h1v1h-1ZM33 312h1v1h-1Z" fill="#d8e8f8"/><path d="M400 311h1v1h-1Z" fill="#68b8f8"/><path d="M32 311h1v1h-1Z" fill="#60b8f8"/><path d="M400 310h1v1h-1Z" fill="#e0f0f8"/><path d="M32 310h1v1h-1Z" fill="#d8e8f8"/><path d="M401 309h1v1h-1Z" fill="#70c0f8"/><path d="M31 309h1v1h-1Z" fill="#60b8f8"/><path d="M401 308h1v1h-1ZM31 308h1v1h-1Z" fill="#e0f0f8"/><path d="M402 307h1v1h-1Z" fill="#78c8f8"/><path d="M30 307h1v1h-1Z" fill="#70c0f8"/><path d="M30 306h1v1h-1Z" fill="#e0f0f8"/><path d="M403 305h1v1h-1Z" fill="#70c0f8"/><path d="M29 305h1v1h-1Z" fill="#68b8f8"/><path d="M403 304h1v1h-1Z" fill="#e0f0f8"/><path d="M29 304h1v1h-1Z" fill="#d8e8f8"/><path d="M404 303h1v1h-1Z" fill="#60b8f8"/><path d="M28 303h1v1h-1Z" fill="#50b0f8"/><path d="M404 302h1v1h-1Z" fill="#c8e8f8"/><path d="M28 302h1v1h-1Z" fill="#c0e0f8"/><path d="M405 301h1v1h-1Z" fill="#48b0f8"/><path d="M27 301h1v1h-1Z" fill="#40a8f8"/><path d="M405 300h1v1h-1Z" fill="#b0e0f8"/><path d="M27 300h1v1h-1Z" fill="#a8d8f8"/><path d="M406 299h1v1h-1Z" fill="#30a8f8"/><path d="M26 299h1v1h-1Z" fill="#28a0f8"/><path d="M406 298h1v1h-1Z" fill="#98d0f8"/><path d="M219 298h1v1h-1Z" fill="#80c0f8"/><path d="M26 298h1v1h-1Z" fill="#98d0f8"/><path d="M221 297h1v1h-1Z" fill="#48b0f8"/><path d="M215 297h1v1h-1Z" fill="#58b8f8"/><path d="M407 296h1v1h-1Z" fill="#78c8f8"/><path d="M214 296h1v1h-1Z" fill="#2898f0"/><path d="M25 296h1v1h-1Z" fill="#78c8f8"/><path d="M407 295h1v1h-1Z" fill="#d8f0f8"/><path d="M223 295h1v1h-1Z" fill="#1898f0"/><path d="M213 295h1v1h-1Z" fill="#48b0f0"/><path d="M25 295h1v1h-1Z" fill="#d8f0f8"/><path d="M408 294h1v1h-1ZM24 294h1v1h-1Z" fill="#48b0f8"/><path d="M408 293h1v1h-1Z" fill="#a8d8f8"/><path d="M224 293h1v1h-1Z" fill="#48a8f0"/><path d="M24 293h1v1h-1Z" fill="#a8d8f8"/><path d="M225 292h1v1h-1Z" fill="#80c0f8"/><path d="M409 291h1v1h-1ZM23 291h1v1h-1Z" fill="#70c0f8"/><path d="M409 290h1v1h-1ZM23 290h1v1h-1Z" fill="#d0e8f8"/><path d="M410 289h1v1h-1ZM22 289h1v1h-1Z" fill="#38a8f8"/><path d="M410 288h1v1h-1ZM22 288h1v1h-1Z" fill="#98d0f8"/><path d="M411 286h1v1h-1ZM21 286h1v1h-1Z" fill="#58b8f8"/><path d="M411 285h1v1h-1ZM21 285h1v1h-1Z" fill="#a8d8f8"/><path d="M412 283h1v1h-1ZM20 283h1v1h-1Z" fill="#58b8f8"/><path d="M412 282h1v1h-1ZM20 282h1v1h-1Z" fill="#a8d8f8"/><path d="M242 281h1v1h-1Z" fill="#38a0f0"/><path d="M236 281h1v1h-1Z" fill="#78c0f8"/><path d="M200 281h1v1h-1Z" fill="#48b0f0"/><path d="M194 281h1v1h-1Z" fill="#48a8f0"/><path d="M413 280h1v1h-1Z" fill="#58b8f8"/><path d="M244 280h1v1h-1Z" fill="#70c0f8"/><path d="M235 280h1v1h-1Z" fill="#2098f0"/><path d="M202 280h1v1h-1Z" fill="#60b8f8"/><path d="M193 280h1v1h-1Z" fill="#2898f0"/><path d="M19 280h1v1h-1Z" fill="#58b8f8"/><path d="M413 279h1v1h-1Z" fill="#a8d8f8"/><path d="M233 279h1v1h-1Z" fill="#48a8f0"/><path d="M203 279h1v1h-1Z" fill="#2098f0"/><path d="M192 279h1v1h-1Z" fill="#40a8f0"/><path d="M19 279h1v1h-1Z" fill="#a8d8f8"/><path d="M245 278h1v1h-1Z" fill="#70c0f8"/><path d="M231 278h1v1h-1Z" fill="#50b0f8"/><path d="M206 278h1v1h-1Z" fill="#80c0f8"/><path d="M205 278h1v1h-1Z" fill="#30a0f0"/><path d="M18 278h1v1h-1Z" fill="#1098f8"/><path d="M230 277h1v1h-1Z" fill="#1090f0"/><path d="M207 277h1v1h-1Z" fill="#50b0f8"/><path d="M414 276h1v1h-1Z" fill="#a0d8f8"/><path d="M228 276h1v1h-1Z" fill="#2098f0"/><path d="M209 276h1v1h-1Z" fill="#60b8f8"/><path d="M191 276h1v1h-1Z" fill="#48a0e0"/><path d="M18 276h1v1h-1Z" fill="#a0d8f8"/><path d="M414 275h1v1h-1Z" fill="#e8f0f8"/><path d="M212 275h1v1h-1Z" fill="#68c0f8"/><path d="M210 275h1v1h-1Z" fill="#2098f0"/><path d="M18 275h1v1h-1Z" fill="#e8f0f8"/><path d="M245 274h1v1h-1Z" fill="#1890f0"/><path d="M212 274h1v1h-1Z" fill="#30a0f0"/><path d="M191 274h1v1h-1Z" fill="#70c0f8"/><path d="M415 273h1v1h-1ZM17 273h1v1h-1Z" fill="#78c8f8"/><path d="M415 272h1v1h-1Z" fill="#c0e0f8"/><path d="M244 272h1v1h-1Z" fill="#1898f0"/><path d="M192 272h1v1h-1Z" fill="#58b8f8"/><path d="M17 272h1v1h-1Z" fill="#c0e0f8"/><path d="M416 271h1v1h-1Z" fill="#1098f8"/><path d="M243 271h1v1h-1Z" fill="#2098f0"/><path d="M193 271h1v1h-1Z" fill="#48b0f8"/><path d="M16 271h1v1h-1Z" fill="#1098f8"/><path d="M261 270h1v1h-1Z" fill="#68b8f0"/><path d="M260 270h1v1h-1Z" fill="#1890f0"/><path d="M257 270h1v1h-1Z" fill="#60b0f0"/><path d="M242 270h1v1h-1Z" fill="#60b8f8"/><path d="M179 270h1v1h-1Z" fill="#50a8e8"/><path d="M175 270h1v1h-1Z" fill="#78c0f8"/><path d="M416 269h1v1h-1Z" fill="#a0d8f8"/><path d="M263 269h1v1h-1ZM255 269h1v1h-1Z" fill="#60b8f8"/><path d="M240 269h1v1h-1Z" fill="#30a0f0"/><path d="M196 269h1v1h-1Z" fill="#58b8f8"/><path d="M181 269h1v1h-1Z" fill="#30a0f0"/><path d="M16 269h1v1h-1Z" fill="#a0d8f8"/><path d="M416 268h1v1h-1Z" fill="#e8f0f8"/><path d="M254 268h1v1h-1Z" fill="#58b8f8"/><path d="M238 268h1v1h-1Z" fill="#2098f0"/><path d="M198 268h1v1h-1Z" fill="#58b8f8"/><path d="M182 268h1v1h-1Z" fill="#30a0f0"/><path d="M16 268h1v1h-1Z" fill="#e8f0f8"/><path d="M417 267h1v1h-1Z" fill="#30a8f8"/><path d="M237 267h1v1h-1Z" fill="#60b8f8"/><path d="M200 267h1v1h-1Z" fill="#2898f0"/><path d="M183 267h1v1h-1Z" fill="#78c0f8"/><path d="M172 267h1v1h-1Z" fill="#48a8f8"/><path d="M15 267h1v1h-1Z" fill="#30a8f8"/><path d="M253 266h1v1h-1Z" fill="#70c0f8"/><path d="M235 266h1v1h-1Z" fill="#60b8f8"/><path d="M202 266h1v1h-1Z" fill="#1890f0"/><path d="M183 266h1v1h-1Z" fill="#2098f0"/><path d="M417 265h1v1h-1Z" fill="#a0d8f8"/><path d="M265 265h1v1h-1Z" fill="#70c0f8"/><path d="M233 265h1v1h-1Z" fill="#38a0f0"/><path d="M203 265h1v1h-1Z" fill="#60b8f8"/><path d="M15 265h1v1h-1Z" fill="#a0d8f8"/><path d="M417 264h1v1h-1Z" fill="#d8f0f8"/><path d="M253 264h1v1h-1Z" fill="#50a8e8"/><path d="M231 264h1v1h-1Z" fill="#2898f0"/><path d="M205 264h1v1h-1Z" fill="#50b0f8"/><path d="M171 264h1v1h-1Z" fill="#80c0f8"/><path d="M15 264h1v1h-1Z" fill="#d8f0f8"/><path d="M418 263h1v1h-1Z" fill="#1898f8"/><path d="M230 263h1v1h-1Z" fill="#60b8f8"/><path d="M207 263h1v1h-1Z" fill="#2898f0"/><path d="M14 263h1v1h-1Z" fill="#1898f8"/><path d="M228 262h1v1h-1Z" fill="#48b0f8"/><path d="M209 262h1v1h-1Z" fill="#1890f0"/><path d="M418 261h1v1h-1Z" fill="#88d0f8"/><path d="M226 261h1v1h-1Z" fill="#40a8f0"/><path d="M210 261h1v1h-1Z" fill="#60b8f8"/><path d="M14 261h1v1h-1Z" fill="#88d0f8"/><path d="M418 260h1v1h-1Z" fill="#c8e8f8"/><path d="M225 260h1v1h-1Z" fill="#60b8f8"/><path d="M212 260h1v1h-1Z" fill="#40a8f0"/><path d="M154 260h1v1h-1ZM152 260h1v1h-1Z" fill="#78c0f8"/><path d="M14 260h1v1h-1Z" fill="#c8e8f8"/><path d="M287 259h1v1h-1Z" fill="#58b0f8"/><path d="M280 259h1v1h-1Z" fill="#40a8f0"/><path d="M156 259h1v1h-1Z" fill="#2098f0"/><path d="M150 259h1v1h-1Z" fill="#1890f0"/><path d="M419 258h1v1h-1Z" fill="#40a8f8"/><path d="M288 258h1v1h-1Z" fill="#50b0f8"/><path d="M278 258h1v1h-1Z" fill="#58b0f8"/><path d="M158 258h1v1h-1Z" fill="#38a0f0"/><path d="M13 258h1v1h-1Z" fill="#40a8f8"/><path d="M276 257h1v1h-1Z" fill="#78c0f8"/><path d="M160 257h1v1h-1Z" fill="#58b8f8"/><path d="M419 256h1v1h-1Z" fill="#98d0f8"/><path d="M289 256h1v1h-1Z" fill="#38a0f0"/><path d="M275 256h1v1h-1Z" fill="#2898f0"/><path d="M212 256h1v1h-1ZM171 256h1v1h-1Z" fill="#80c0f8"/><path d="M147 256h1v1h-1Z" fill="#78c0f8"/><path d="M13 256h1v1h-1Z" fill="#98d0f8"/><path d="M419 255h1v1h-1Z" fill="#c8e8f8"/><path d="M273 255h1v1h-1Z" fill="#58b8f8"/><path d="M163 255h1v1h-1Z" fill="#2898f0"/><path d="M13 255h1v1h-1Z" fill="#c8e8f8"/><path d="M271 254h1v1h-1Z" fill="#50b0f8"/><path d="M165 254h1v1h-1Z" fill="#38a0f0"/><path d="M270 253h1v1h-1Z" fill="#1090f0"/><path d="M167 253h1v1h-1Z" fill="#68c0f8"/><path d="M147 253h1v1h-1Z" fill="#58a8e8"/><path d="M420 252h1v1h-1Z" fill="#50b0f8"/><path d="M289 252h1v1h-1ZM268 252h1v1h-1Z" fill="#30a0f0"/><path d="M168 252h1v1h-1Z" fill="#1090f0"/><path d="M12 252h1v1h-1Z" fill="#50b0f8"/><path d="M266 251h1v1h-1Z" fill="#58b8f8"/><path d="M265 251h1v1h-1Z" fill="#30a0f0"/><path d="M225 251h1v1h-1ZM184 251h1v1h-1Z" fill="#80c0f8"/><path d="M171 251h1v1h-1Z" fill="#60b8f8"/><path d="M170 251h1v1h-1Z" fill="#30a0f0"/><path d="M420 250h1v1h-1Z" fill="#a8d8f8"/><path d="M288 250h1v1h-1Z" fill="#58b0f8"/><path d="M12 250h1v1h-1Z" fill="#a8d8f8"/><path d="M420 249h1v1h-1Z" fill="#d8f0f8"/><path d="M287 249h1v1h-1Z" fill="#50b0f8"/><path d="M150 249h1v1h-1Z" fill="#1890f0"/><path d="M12 249h1v1h-1Z" fill="#d8f0f8"/><path d="M285 248h1v1h-1Z" fill="#40a8f0"/><path d="M212 248h1v1h-1Z" fill="#80c0f8"/><path d="M151 248h1v1h-1Z" fill="#60b8f8"/><path d="M283 247h1v1h-1Z" fill="#2098f0"/><path d="M153 247h1v1h-1Z" fill="#40a8f0"/><path d="M421 246h1v1h-1Z" fill="#50b0f8"/><path d="M282 246h1v1h-1Z" fill="#60b8f8"/><path d="M155 246h1v1h-1Z" fill="#40a8f0"/><path d="M11 246h1v1h-1Z" fill="#50b0f8"/><path d="M280 245h1v1h-1Z" fill="#48a8f0"/><path d="M156 245h1v1h-1Z" fill="#78c0f8"/><path d="M421 244h1v1h-1Z" fill="#90d0f8"/><path d="M278 244h1v1h-1ZM253 244h1v1h-1Z" fill="#48a8f0"/><path d="M158 244h1v1h-1Z" fill="#50b0f8"/><path d="M11 244h1v1h-1Z" fill="#90d0f8"/><path d="M276 243h1v1h-1Z" fill="#1090f0"/><path d="M252 243h1v1h-1Z" fill="#50b0f8"/><path d="M225 243h1v1h-1Z" fill="#80c0f8"/><path d="M184 243h1v1h-1Z" fill="#30a0f0"/><path d="M160 243h1v1h-1Z" fill="#38a0f0"/><path d="M421 242h1v1h-1Z" fill="#d0e8f8"/><path d="M275 242h1v1h-1Z" fill="#58b0f8"/><path d="M186 242h1v1h-1Z" fill="#68b8f8"/><path d="M162 242h1v1h-1Z" fill="#2898f0"/><path d="M11 242h1v1h-1Z" fill="#d0e8f8"/><path d="M273 241h1v1h-1Z" fill="#58b8f8"/><path d="M249 241h1v1h-1Z" fill="#30a0f0"/><path d="M188 241h1v1h-1Z" fill="#78c8f8"/><path d="M163 241h1v1h-1Z" fill="#78c0f8"/><path d="M422 240h1v1h-1Z" fill="#1098f8"/><path d="M272 240h1v1h-1Z" fill="#68c0f8"/><path d="M271 240h1v1h-1Z" fill="#2898f0"/><path d="M247 240h1v1h-1Z" fill="#48b0f8"/><path d="M189 240h1v1h-1Z" fill="#2098f0"/><path d="M165 240h1v1h-1Z" fill="#40a8f8"/><path d="M10 240h1v1h-1Z" fill="#1098f8"/><path d="M272 239h1v1h-1Z" fill="#1090f0"/><path d="M245 239h1v1h-1Z" fill="#50b0f8"/><path d="M191 239h1v1h-1Z" fill="#48a8f8"/><path d="M164 239h1v1h-1Z" fill="#30a0f0"/><path d="M422 238h1v1h-1Z" fill="#50b0f8"/><path d="M274 238h1v1h-1Z" fill="#2898f0"/><path d="M244 238h1v1h-1Z" fill="#1090f0"/><path d="M193 238h1v1h-1Z" fill="#58b8f8"/><path d="M162 238h1v1h-1Z" fill="#48b0f8"/><path d="M10 238h1v1h-1Z" fill="#50b0f8"/><path d="M422 237h1v1h-1Z" fill="#70c0f8"/><path d="M276 237h1v1h-1Z" fill="#50b0f8"/><path d="M242 237h1v1h-1Z" fill="#48a8f0"/><path d="M194 237h1v1h-1Z" fill="#1890f0"/><path d="M160 237h1v1h-1Z" fill="#58b8f8"/><path d="M10 237h1v1h-1Z" fill="#78c0f8"/><path d="M278 236h1v1h-1Z" fill="#58b8f8"/><path d="M240 236h1v1h-1Z" fill="#40a8f0"/><path d="M196 236h1v1h-1Z" fill="#2898f0"/><path d="M159 236h1v1h-1Z" fill="#1090f0"/><path d="M422 235h1v1h-1Z" fill="#98d0f8"/><path d="M279 235h1v1h-1Z" fill="#1890f0"/><path d="M238 235h1v1h-1Z" fill="#60b8f8"/><path d="M198 235h1v1h-1Z" fill="#58b8f8"/><path d="M157 235h1v1h-1Z" fill="#50b0f8"/><path d="M10 235h1v1h-1Z" fill="#98d0f8"/><path d="M281 234h1v1h-1Z" fill="#30a0f0"/><path d="M237 234h1v1h-1Z" fill="#2098f0"/><path d="M200 234h1v1h-1Z" fill="#58b8f8"/><path d="M155 234h1v1h-1Z" fill="#50b0f8"/><path d="M422 233h1v1h-1Z" fill="#b8e0f8"/><path d="M283 233h1v1h-1Z" fill="#50b0f8"/><path d="M259 233h1v1h-1Z" fill="#2098f0"/><path d="M235 233h1v1h-1Z" fill="#48b0f0"/><path d="M202 233h1v1h-1Z" fill="#80c0f8"/><path d="M201 233h1v1h-1Z" fill="#1890f0"/><path d="M153 233h1v1h-1Z" fill="#60b8f8"/><path d="M10 233h1v1h-1Z" fill="#b8e0f8"/><path d="M284 232h1v1h-1Z" fill="#1898f0"/><path d="M260 232h1v1h-1Z" fill="#60b8f8"/><path d="M257 232h1v1h-1Z" fill="#1898f0"/><path d="M233 232h1v1h-1Z" fill="#50b0f8"/><path d="M203 232h1v1h-1Z" fill="#30a0f0"/><path d="M179 232h1v1h-1Z" fill="#40a8f0"/><path d="M176 232h1v1h-1Z" fill="#58b8f8"/><path d="M152 232h1v1h-1Z" fill="#48a8f8"/><path d="M285 231h1v1h-1Z" fill="#2898f0"/><path d="M262 231h1v1h-1Z" fill="#48b0f8"/><path d="M256 231h1v1h-1Z" fill="#78c0f8"/><path d="M231 231h1v1h-1Z" fill="#60b8f8"/><path d="M205 231h1v1h-1Z" fill="#50b0f8"/><path d="M180 231h1v1h-1Z" fill="#78c0f8"/><path d="M174 231h1v1h-1Z" fill="#38a8f0"/><path d="M151 231h1v1h-1Z" fill="#78c0f8"/><path d="M264 230h1v1h-1ZM254 230h1v1h-1Z" fill="#50b0f8"/><path d="M230 230h1v1h-1Z" fill="#2898f0"/><path d="M207 230h1v1h-1Z" fill="#78c0f8"/><path d="M182 230h1v1h-1Z" fill="#70c0f8"/><path d="M172 230h1v1h-1Z" fill="#1890f0"/><path d="M266 229h1v1h-1Z" fill="#2098f0"/><path d="M252 229h1v1h-1Z" fill="#30a0f0"/><path d="M228 229h1v1h-1Z" fill="#48b0f0"/><path d="M208 229h1v1h-1Z" fill="#1898f0"/><path d="M184 229h1v1h-1Z" fill="#50b0f8"/><path d="M171 229h1v1h-1Z" fill="#78c0f8"/><path d="M423 228h1v1h-1Z" fill="#20a0f8"/><path d="M267 228h1v1h-1Z" fill="#60b8f8"/><path d="M250 228h1v1h-1Z" fill="#1898f0"/><path d="M226 228h1v1h-1Z" fill="#58b8f8"/><path d="M210 228h1v1h-1Z" fill="#48a8f8"/><path d="M186 228h1v1h-1Z" fill="#58b0f8"/><path d="M169 228h1v1h-1Z" fill="#58b8f8"/><path d="M9 228h1v1H9Z" fill="#20a0f8"/><path d="M269 227h1v1h-1ZM249 227h1v1h-1Z" fill="#50b0f8"/><path d="M212 227h1v1h-1Z" fill="#48b0f8"/><path d="M188 227h1v1h-1Z" fill="#1890f0"/><path d="M167 227h1v1h-1Z" fill="#2898f0"/><path d="M271 226h1v1h-1Z" fill="#48b0f8"/><path d="M247 226h1v1h-1Z" fill="#58b8f8"/><path d="M189 226h1v1h-1Z" fill="#60b8f8"/><path d="M165 226h1v1h-1Z" fill="#1898f0"/><path d="M273 225h1v1h-1Z" fill="#1890f0"/><path d="M245 225h1v1h-1Z" fill="#2898f0"/><path d="M191 225h1v1h-1Z" fill="#50b0f8"/><path d="M164 225h1v1h-1Z" fill="#60b8f8"/><path d="M151 225h1v1h-1Z" fill="#2898f0"/><path d="M423 224h1v1h-1ZM285 224h1v1h-1Z" fill="#50b0f8"/><path d="M274 224h1v1h-1Z" fill="#58b8f8"/><path d="M244 224h1v1h-1Z" fill="#78c0f8"/><path d="M243 224h1v1h-1Z" fill="#1090f0"/><path d="M193 224h1v1h-1Z" fill="#40a8f0"/><path d="M162 224h1v1h-1Z" fill="#48a8f0"/><path d="M9 224h1v1H9Z" fill="#50b0f8"/><path d="M284 223h1v1h-1Z" fill="#58b8f8"/><path d="M276 223h1v1h-1Z" fill="#48b0f8"/><path d="M242 223h1v1h-1Z" fill="#58b8f8"/><path d="M160 223h1v1h-1Z" fill="#2898f0"/><path d="M152 223h1v1h-1Z" fill="#60b8f8"/><path d="M282 222h1v1h-1Z" fill="#60b0f0"/><path d="M278 222h1v1h-1Z" fill="#58b0e8"/><path d="M240 222h1v1h-1Z" fill="#48a8f0"/><path d="M196 222h1v1h-1Z" fill="#50b0f8"/><path d="M158 222h1v1h-1Z" fill="#38a0f0"/><path d="M154 222h1v1h-1Z" fill="#68b8f0"/><path d="M239 221h1v1h-1Z" fill="#80c0f8"/><path d="M238 221h1v1h-1Z" fill="#2098f0"/><path d="M198 221h1v1h-1Z" fill="#40a8f0"/><path d="M199 220h1v1h-1Z" fill="#80c0f8"/><path d="M235 219h1v1h-1Z" fill="#60b8f8"/><path d="M233 218h1v1h-1Z" fill="#30a0f0"/><path d="M203 218h1v1h-1ZM231 216h1v1h-1Z" fill="#50b0f8"/><path d="M205 216h1v1h-1Z" fill="#68c0f8"/><path d="M233 215h1v1h-1Z" fill="#60b8f8"/><path d="M204 215h1v1h-1Z" fill="#38a0f0"/><path d="M234 214h1v1h-1Z" fill="#2098f0"/><path d="M202 214h1v1h-1Z" fill="#40a8f0"/><path d="M236 213h1v1h-1Z" fill="#48b0f0"/><path d="M200 213h1v1h-1Z" fill="#58b8f8"/><path d="M238 212h1v1h-1Z" fill="#50b0f8"/><path d="M198 212h1v1h-1Z" fill="#80c0f8"/><path d="M279 211h1v1h-1Z" fill="#78c0f8"/><path d="M197 211h1v1h-1Z" fill="#38a0f0"/><path d="M159 211h1v1h-1Z" fill="#80c0f8"/><path d="M156 211h1v1h-1Z" fill="#60b0f0"/><path d="M277 210h1v1h-1Z" fill="#2098f0"/><path d="M241 210h1v1h-1Z" fill="#2898f0"/><path d="M195 210h1v1h-1Z" fill="#48b0f8"/><path d="M160 210h1v1h-1Z" fill="#50b0f8"/><path d="M153 210h1v1h-1ZM275 209h1v1h-1Z" fill="#38a0f0"/><path d="M243 209h1v1h-1Z" fill="#40a8f0"/><path d="M193 209h1v1h-1Z" fill="#58b8f8"/><path d="M423 208h1v1h-1Z" fill="#50b0f8"/><path d="M273 208h1v1h-1Z" fill="#58b0f8"/><path d="M245 208h1v1h-1Z" fill="#58b8f8"/><path d="M192 208h1v1h-1Z" fill="#2098f0"/><path d="M163 208h1v1h-1Z" fill="#38a8f0"/><path d="M151 208h1v1h-1Z" fill="#40a8f0"/><path d="M9 208h1v1H9Z" fill="#50b0f8"/><path d="M246 207h1v1h-1Z" fill="#1090f0"/><path d="M190 207h1v1h-1Z" fill="#38a0f0"/><path d="M165 207h1v1h-1Z" fill="#50b0f8"/><path d="M270 206h1v1h-1Z" fill="#30a0f0"/><path d="M248 206h1v1h-1Z" fill="#50b0f8"/><path d="M212 206h1v1h-1Z" fill="#2098f0"/><path d="M188 206h1v1h-1ZM167 206h1v1h-1Z" fill="#60b8f8"/><path d="M268 205h1v1h-1Z" fill="#48a8f0"/><path d="M250 205h1v1h-1Z" fill="#48b0f8"/><path d="M225 205h1v1h-1Z" fill="#60b8f8"/><path d="M168 205h1v1h-1Z" fill="#2098f0"/><path d="M423 204h1v1h-1Z" fill="#20a0f8"/><path d="M266 204h1v1h-1ZM252 204h1v1h-1Z" fill="#60b8f8"/><path d="M227 204h1v1h-1Z" fill="#78c8f8"/><path d="M209 204h1v1h-1Z" fill="#50b0f8"/><path d="M185 204h1v1h-1Z" fill="#2898f0"/><path d="M170 204h1v1h-1Z" fill="#50b0f8"/><path d="M9 204h1v1H9Z" fill="#20a0f8"/><path d="M423 203h1v1h-1Z" fill="#1098f8"/><path d="M265 203h1v1h-1Z" fill="#1090f0"/><path d="M253 203h1v1h-1Z" fill="#2098f0"/><path d="M229 203h1v1h-1Z" fill="#58b0f8"/><path d="M208 203h1v1h-1Z" fill="#80c0f8"/><path d="M207 203h1v1h-1ZM183 203h1v1h-1Z" fill="#30a0f0"/><path d="M172 203h1v1h-1Z" fill="#50b0f8"/><path d="M9 203h1v1H9Z" fill="#1098f8"/><path d="M285 202h1v1h-1Z" fill="#1090f0"/><path d="M263 202h1v1h-1Z" fill="#40a8f0"/><path d="M255 202h1v1h-1Z" fill="#48b0f8"/><path d="M231 202h1v1h-1Z" fill="#40a8f0"/><path d="M225 202h1v1h-1Z" fill="#80c0f8"/><path d="M205 202h1v1h-1Z" fill="#2098f0"/><path d="M181 202h1v1h-1Z" fill="#60b8f8"/><path d="M173 202h1v1h-1Z" fill="#1090f0"/><path d="M151 202h1v1h-1Z" fill="#40a8f0"/><path d="M422 201h1v1h-1Z" fill="#e0f0f8"/><path d="M261 201h1v1h-1ZM257 201h1v1h-1Z" fill="#50b0f8"/><path d="M233 201h1v1h-1Z" fill="#2098f0"/><path d="M204 201h1v1h-1Z" fill="#60b8f8"/><path d="M180 201h1v1h-1Z" fill="#1090f0"/><path d="M175 201h1v1h-1Z" fill="#38a0f0"/><path d="M284 200h1v1h-1Z" fill="#80c0f8"/><path d="M283 200h1v1h-1Z" fill="#1890f0"/><path d="M259 200h1v1h-1Z" fill="#58b0f8"/><path d="M234 200h1v1h-1Z" fill="#78c0f8"/><path d="M202 200h1v1h-1Z" fill="#40a8f0"/><path d="M177 200h1v1h-1Z" fill="#60b8f8"/><path d="M153 200h1v1h-1Z" fill="#30a0f0"/><path d="M422 199h1v1h-1Z" fill="#b8e0f8"/><path d="M282 199h1v1h-1Z" fill="#60b8f8"/><path d="M236 199h1v1h-1Z" fill="#50b0f8"/><path d="M212 199h1v1h-1Z" fill="#80c0f8"/><path d="M200 199h1v1h-1Z" fill="#38a0f0"/><path d="M155 199h1v1h-1Z" fill="#1890f0"/><path d="M10 199h1v1h-1Z" fill="#b8e0f8"/><path d="M280 198h1v1h-1Z" fill="#40a8f0"/><path d="M238 198h1v1h-1Z" fill="#30a0f0"/><path d="M198 198h1v1h-1Z" fill="#1090f0"/><path d="M156 198h1v1h-1Z" fill="#50b0f8"/><path d="M422 197h1v1h-1Z" fill="#98d0f8"/><path d="M278 197h1v1h-1Z" fill="#2898f0"/><path d="M240 197h1v1h-1Z" fill="#2098f0"/><path d="M197 197h1v1h-1Z" fill="#60b8f8"/><path d="M157 197h1v1h-1Z" fill="#80c0f8"/><path d="M10 197h1v1h-1Z" fill="#98d0f8"/><path d="M241 196h1v1h-1Z" fill="#58b8f8"/><path d="M195 196h1v1h-1Z" fill="#48a8f0"/><path d="M160 196h1v1h-1Z" fill="#2098f0"/><path d="M275 195h1v1h-1ZM243 195h1v1h-1Z" fill="#58b8f8"/><path d="M193 195h1v1h-1Z" fill="#38a8f0"/><path d="M162 195h1v1h-1Z" fill="#1090f0"/><path d="M274 194h1v1h-1Z" fill="#80c0f8"/><path d="M273 194h1v1h-1Z" fill="#30a0f0"/><path d="M245 194h1v1h-1Z" fill="#2898f0"/><path d="M225 194h1v1h-1Z" fill="#80c0f8"/><path d="M192 194h1v1h-1Z" fill="#78c0f8"/><path d="M163 194h1v1h-1Z" fill="#58b8f8"/><path d="M422 193h1v1h-1Z" fill="#30a8f8"/><path d="M272 193h1v1h-1Z" fill="#68c0f8"/><path d="M271 193h1v1h-1Z" fill="#1090f0"/><path d="M247 193h1v1h-1Z" fill="#1890f0"/><path d="M190 193h1v1h-1Z" fill="#50b0f8"/><path d="M164 193h1v1h-1Z" fill="#68c0f8"/><path d="M10 193h1v1h-1Z" fill="#30a8f8"/><path d="M422 192h1v1h-1Z" fill="#1098f8"/><path d="M272 192h1v1h-1Z" fill="#1890f0"/><path d="M248 192h1v1h-1Z" fill="#60b8f8"/><path d="M188 192h1v1h-1Z" fill="#48a8f8"/><path d="M164 192h1v1h-1Z" fill="#38a0f0"/><path d="M10 192h1v1h-1Z" fill="#1098f8"/><path d="M274 191h1v1h-1Z" fill="#38a0f0"/><path d="M250 191h1v1h-1Z" fill="#40a8f0"/><path d="M187 191h1v1h-1Z" fill="#78c0f8"/><path d="M186 191h1v1h-1Z" fill="#2898f0"/><path d="M162 191h1v1h-1ZM276 190h1v1h-1Z" fill="#50b0f8"/><path d="M252 190h1v1h-1Z" fill="#2898f0"/><path d="M185 190h1v1h-1Z" fill="#60b8f8"/><path d="M160 190h1v1h-1Z" fill="#78c0f8"/><path d="M421 189h1v1h-1Z" fill="#b0d8f8"/><path d="M278 189h1v1h-1Z" fill="#68b8f8"/><path d="M253 189h1v1h-1Z" fill="#40a8f0"/><path d="M184 189h1v1h-1Z" fill="#60b8f8"/><path d="M159 189h1v1h-1Z" fill="#2098f0"/><path d="M11 189h1v1h-1Z" fill="#b0d8f8"/><path d="M280 188h1v1h-1Z" fill="#78c0f8"/><path d="M279 188h1v1h-1Z" fill="#2898f0"/><path d="M157 188h1v1h-1Z" fill="#48a8f0"/><path d="M421 187h1v1h-1Z" fill="#70c0f8"/><path d="M281 187h1v1h-1Z" fill="#30a0f0"/><path d="M155 187h1v1h-1Z" fill="#58b8f8"/><path d="M11 187h1v1h-1Z" fill="#70c0f8"/><path d="M283 186h1v1h-1Z" fill="#68c0f8"/><path d="M225 186h1v1h-1ZM184 186h1v1h-1Z" fill="#80c0f8"/><path d="M154 186h1v1h-1Z" fill="#1090f0"/><path d="M421 185h1v1h-1Z" fill="#30a8f8"/><path d="M152 185h1v1h-1Z" fill="#2098f0"/><path d="M11 185h1v1h-1Z" fill="#30a8f8"/><path d="M286 184h1v1h-1Z" fill="#38a0f0"/><path d="M150 184h1v1h-1ZM288 183h1v1h-1Z" fill="#58b8f8"/><path d="M149 183h1v1h-1Z" fill="#1898f0"/><path d="M420 182h1v1h-1Z" fill="#a8d8f8"/><path d="M266 182h1v1h-1Z" fill="#2098f0"/><path d="M265 182h1v1h-1Z" fill="#48a8f0"/><path d="M171 182h1v1h-1Z" fill="#48a8f8"/><path d="M148 182h1v1h-1Z" fill="#38a8f0"/><path d="M12 182h1v1h-1Z" fill="#a8d8f8"/><path d="M289 181h1v1h-1Z" fill="#50b0f8"/><path d="M267 181h1v1h-1Z" fill="#60b8f8"/><path d="M169 181h1v1h-1Z" fill="#48b0f0"/><path d="M420 180h1v1h-1Z" fill="#50b0f8"/><path d="M269 180h1v1h-1Z" fill="#48a8f0"/><path d="M167 180h1v1h-1Z" fill="#2898f0"/><path d="M147 180h1v1h-1Z" fill="#68b8f0"/><path d="M12 180h1v1h-1Z" fill="#50b0f8"/><path d="M420 179h1v1h-1Z" fill="#28a0f8"/><path d="M271 179h1v1h-1Z" fill="#38a0f0"/><path d="M166 179h1v1h-1Z" fill="#60b8f8"/><path d="M12 179h1v1h-1Z" fill="#28a0f8"/><path d="M290 178h1v1h-1Z" fill="#80c0f8"/><path d="M164 178h1v1h-1Z" fill="#50b0f8"/><path d="M147 178h1v1h-1Z" fill="#50a8e8"/><path d="M419 177h1v1h-1Z" fill="#c8e8f8"/><path d="M289 177h1v1h-1Z" fill="#1890f0"/><path d="M274 177h1v1h-1Z" fill="#60b8f8"/><path d="M162 177h1v1h-1Z" fill="#50b0f8"/><path d="M276 176h1v1h-1Z" fill="#38a0f0"/><path d="M160 176h1v1h-1Z" fill="#1890f0"/><path d="M13 176h1v1h-1Z" fill="#98d0f8"/><path d="M419 175h1v1h-1Z" fill="#70c0f8"/><path d="M288 175h1v1h-1Z" fill="#38a8f0"/><path d="M278 175h1v1h-1Z" fill="#30a0f0"/><path d="M159 175h1v1h-1Z" fill="#58b8f8"/><path d="M148 175h1v1h-1Z" fill="#60b8f8"/><path d="M419 174h1v1h-1Z" fill="#38a8f8"/><path d="M287 174h1v1h-1Z" fill="#2898f0"/><path d="M157 174h1v1h-1Z" fill="#58b8f8"/><path d="M149 174h1v1h-1Z" fill="#50b0f8"/><path d="M13 174h1v1h-1Z" fill="#40a8f8"/><path d="M285 173h1v1h-1Z" fill="#58b0e8"/><path d="M281 173h1v1h-1Z" fill="#70c0f8"/><path d="M225 173h1v1h-1Z" fill="#60b8f8"/><path d="M212 173h1v1h-1Z" fill="#78c8f8"/><path d="M155 173h1v1h-1Z" fill="#68b8f0"/><path d="M154 173h1v1h-1Z" fill="#1890f0"/><path d="M151 173h1v1h-1Z" fill="#68b8f0"/><path d="M418 172h1v1h-1Z" fill="#c0e0f8"/><path d="M226 172h1v1h-1Z" fill="#60b8f8"/><path d="M211 172h1v1h-1Z" fill="#30a0f0"/><path d="M14 172h1v1h-1Z" fill="#c0e0f8"/><path d="M227 171h1v1h-1Z" fill="#1090f0"/><path d="M209 171h1v1h-1ZM418 170h1v1h-1Z" fill="#50b0f8"/><path d="M229 170h1v1h-1Z" fill="#40a8f0"/><path d="M207 170h1v1h-1Z" fill="#58b0f8"/><path d="M14 170h1v1h-1Z" fill="#50b0f8"/><path d="M418 169h1v1h-1Z" fill="#1898f8"/><path d="M231 169h1v1h-1Z" fill="#58b8f8"/><path d="M14 169h1v1h-1Z" fill="#1898f8"/><path d="M417 168h1v1h-1Z" fill="#d8e8f8"/><path d="M204 168h1v1h-1Z" fill="#48a8f0"/><path d="M15 168h1v1h-1Z" fill="#d8e8f8"/><path d="M234 167h1v1h-1Z" fill="#1898f0"/><path d="M202 167h1v1h-1Z" fill="#48b0f0"/><path d="M417 166h1v1h-1Z" fill="#68b8f8"/><path d="M253 166h1v1h-1Z" fill="#80c0f8"/><path d="M236 166h1v1h-1Z" fill="#50b0f8"/><path d="M200 166h1v1h-1Z" fill="#60b8f8"/><path d="M183 166h1v1h-1Z" fill="#68b8f0"/><path d="M172 166h1v1h-1Z" fill="#2098f0"/><path d="M15 166h1v1h-1Z" fill="#68b8f8"/><path d="M417 165h1v1h-1Z" fill="#28a0f8"/><path d="M264 165h1v1h-1Z" fill="#58b8f8"/><path d="M254 165h1v1h-1Z" fill="#2898f0"/><path d="M238 165h1v1h-1Z" fill="#50b0f8"/><path d="M199 165h1v1h-1Z" fill="#1090f0"/><path d="M15 165h1v1h-1Z" fill="#28a0f8"/><path d="M416 164h1v1h-1Z" fill="#e8f0f8"/><path d="M263 164h1v1h-1Z" fill="#38a0f0"/><path d="M255 164h1v1h-1Z" fill="#30a0f0"/><path d="M197 164h1v1h-1Z" fill="#48b0f0"/><path d="M182 164h1v1h-1Z" fill="#60b8f8"/><path d="M173 164h1v1h-1Z" fill="#58b8f8"/><path d="M16 164h1v1h-1Z" fill="#e8f0f8"/><path d="M256 163h1v1h-1Z" fill="#50b0f8"/><path d="M241 163h1v1h-1Z" fill="#2898f0"/><path d="M195 163h1v1h-1Z" fill="#50b0f8"/><path d="M180 163h1v1h-1Z" fill="#38a0f0"/><path d="M175 163h1v1h-1Z" fill="#2098f0"/><path d="M416 162h1v1h-1Z" fill="#58b8f8"/><path d="M257 162h1v1h-1Z" fill="#80c0f8"/><path d="M243 162h1v1h-1Z" fill="#58b0f8"/><path d="M16 162h1v1h-1Z" fill="#58b8f8"/><path d="M416 161h1v1h-1Z" fill="#1098f8"/><path d="M244 161h1v1h-1Z" fill="#50b0f8"/><path d="M192 161h1v1h-1Z" fill="#60b8f8"/><path d="M16 161h1v1h-1Z" fill="#1098f8"/><path d="M415 159h1v1h-1Z" fill="#78c8f8"/><path d="M245 159h1v1h-1Z" fill="#2898f0"/><path d="M17 159h1v1h-1Z" fill="#78c8f8"/><path d="M415 158h1v1h-1Z" fill="#38a8f8"/><path d="M225 158h1v1h-1Z" fill="#60b8f8"/><path d="M211 158h1v1h-1Z" fill="#48a8f0"/><path d="M17 158h1v1h-1Z" fill="#38a8f8"/><path d="M414 157h1v1h-1Z" fill="#e8f0f8"/><path d="M246 157h1v1h-1Z" fill="#80c0f8"/><path d="M227 157h1v1h-1Z" fill="#60b8f8"/><path d="M209 157h1v1h-1Z" fill="#48b0f8"/><path d="M18 157h1v1h-1Z" fill="#e8f0f8"/><path d="M229 156h1v1h-1Z" fill="#40a8f0"/><path d="M207 156h1v1h-1Z" fill="#1090f0"/><path d="M414 155h1v1h-1Z" fill="#58b8f8"/><path d="M245 155h1v1h-1Z" fill="#58a8e8"/><path d="M231 155h1v1h-1Z" fill="#30a0f0"/><path d="M206 155h1v1h-1Z" fill="#60b8f8"/><path d="M18 155h1v1h-1Z" fill="#58b8f8"/><path d="M232 154h1v1h-1Z" fill="#60b8f8"/><path d="M204 154h1v1h-1Z" fill="#58b8f8"/><path d="M18 154h1v1h-1Z" fill="#1098f8"/><path d="M244 153h1v1h-1Z" fill="#58b8f8"/><path d="M233 153h1v1h-1ZM225 153h1v1h-1Z" fill="#80c0f8"/><path d="M202 153h1v1h-1Z" fill="#40a8f0"/><path d="M413 152h1v1h-1Z" fill="#58b8f8"/><path d="M243 152h1v1h-1Z" fill="#60b8f8"/><path d="M236 152h1v1h-1Z" fill="#38a0f0"/><path d="M200 152h1v1h-1Z" fill="#1090f0"/><path d="M19 152h1v1h-1Z" fill="#58b8f8"/><path d="M240 151h1v1h-1Z" fill="#58b0e8"/><path d="M238 151h1v1h-1Z" fill="#70c0f8"/><path d="M198 151h1v1h-1ZM196 151h1v1h-1Z" fill="#68b8f0"/><path d="M212 150h1v1h-1Z" fill="#80c0f8"/><path d="M412 149h1v1h-1ZM20 149h1v1h-1ZM411 146h1v1h-1ZM21 146h1v1h-1Z" fill="#58b8f8"/><path d="M225 145h1v1h-1Z" fill="#80c0f8"/><path d="M410 144h1v1h-1ZM22 144h1v1h-1Z" fill="#98d0f8"/><path d="M410 143h1v1h-1ZM22 143h1v1h-1Z" fill="#38a8f8"/><path d="M409 141h1v1h-1ZM23 141h1v1h-1Z" fill="#70c0f8"/><path d="M409 140h1v1h-1Z" fill="#1098f8"/><path d="M224 140h1v1h-1Z" fill="#30a0f0"/><path d="M23 140h1v1h-1Z" fill="#1098f8"/><path d="M408 139h1v1h-1ZM24 139h1v1h-1Z" fill="#a0d8f8"/><path d="M408 138h1v1h-1Z" fill="#40a8f8"/><path d="M213 138h1v1h-1Z" fill="#38a0f0"/><path d="M24 138h1v1h-1Z" fill="#40a8f8"/><path d="M223 137h1v1h-1Z" fill="#60b8f8"/><path d="M407 136h1v1h-1Z" fill="#78c0f8"/><path d="M222 136h1v1h-1Z" fill="#60b8f8"/><path d="M215 136h1v1h-1Z" fill="#2098f0"/><path d="M25 136h1v1h-1Z" fill="#78c0f8"/><path d="M407 135h1v1h-1Z" fill="#1898f8"/><path d="M217 135h1v1h-1Z" fill="#70c0f8"/><path d="M25 135h1v1h-1Z" fill="#1898f8"/><path d="M406 134h1v1h-1Z" fill="#98d0f8"/><path d="M26 134h1v1h-1Z" fill="#90d0f8"/><path d="M406 133h1v1h-1Z" fill="#28a0f8"/><path d="M26 133h1v1h-1Z" fill="#20a0f8"/><path d="M405 132h1v1h-1Z" fill="#b0d8f8"/><path d="M27 132h1v1h-1Z" fill="#a8d8f8"/><path d="M405 131h1v1h-1Z" fill="#40a8f8"/><path d="M27 131h1v1h-1Z" fill="#38a8f8"/><path d="M404 130h1v1h-1Z" fill="#c8e8f8"/><path d="M28 130h1v1h-1Z" fill="#c0e0f8"/><path d="M404 129h1v1h-1Z" fill="#58b8f8"/><path d="M28 129h1v1h-1Z" fill="#50b0f8"/><path d="M403 128h1v1h-1Z" fill="#e0f0f8"/><path d="M29 128h1v1h-1Z" fill="#d8e8f8"/><path d="M403 127h1v1h-1Z" fill="#70c0f8"/><path d="M29 127h1v1h-1Z" fill="#68b8f8"/><path d="M403 126h1v1h-1Z" fill="#1098f8"/><path d="M30 126h1v1h-1Z" fill="#e0f0f8"/><path d="M402 125h1v1h-1Z" fill="#78c8f8"/><path d="M30 125h1v1h-1Z" fill="#70c0f8"/><path d="M401 124h1v1h-1ZM31 124h1v1h-1Z" fill="#e0f0f8"/><path d="M401 123h1v1h-1Z" fill="#70c0f8"/><path d="M31 123h1v1h-1Z" fill="#60b8f8"/><path d="M400 122h1v1h-1Z" fill="#e0f0f8"/><path d="M32 122h1v1h-1Z" fill="#d8e8f8"/><path d="M400 121h1v1h-1Z" fill="#68b8f8"/><path d="M32 121h1v1h-1Z" fill="#60b8f8"/><path d="M399 120h1v1h-1ZM33 120h1v1h-1Z" fill="#d8e8f8"/><path d="M399 119h1v1h-1ZM33 119h1v1h-1Z" fill="#60b8f8"/><path d="M398 118h1v1h-1ZM34 118h1v1h-1Z" fill="#d8e8f8"/><path d="M398 117h1v1h-1ZM34 117h1v1h-1Z" fill="#50b0f8"/><path d="M397 116h1v1h-1ZM35 116h1v1h-1Z" fill="#b8e0f8"/><path d="M397 115h1v1h-1Z" fill="#30a8f8"/><path d="M35 115h1v1h-1Z" fill="#28a0f8"/><path d="M396 114h1v1h-1Z" fill="#98d0f8"/><path d="M36 114h1v1h-1Z" fill="#90d0f8"/><path d="M396 113h1v1h-1Z" fill="#1898f8"/><path d="M36 113h1v1h-1Z" fill="#1098f8"/><path d="M395 112h1v1h-1Z" fill="#78c0f8"/><path d="M37 112h1v1h-1Z" fill="#68b8f8"/><path d="M394 111h1v1h-1Z" fill="#d8e8f8"/><path d="M38 111h1v1h-1Z" fill="#d0e8f8"/><path d="M394 110h1v1h-1Z" fill="#50b0f8"/><path d="M38 110h1v1h-1Z" fill="#48b0f8"/><path d="M393 109h1v1h-1Z" fill="#b8e0f8"/><path d="M39 109h1v1h-1Z" fill="#a8d8f8"/><path d="M393 108h1v1h-1Z" fill="#28a0f8"/><path d="M39 108h1v1h-1Z" fill="#1898f8"/><path d="M392 107h1v1h-1Z" fill="#78c8f8"/><path d="M40 107h1v1h-1Z" fill="#68c0f8"/><path d="M391 106h1v1h-1Z" fill="#d0e8f8"/><path d="M41 106h1v1h-1Z" fill="#c0e0f8"/><path d="M391 105h1v1h-1Z" fill="#38a8f8"/><path d="M41 105h1v1h-1Z" fill="#28a0f8"/><path d="M390 104h1v1h-1Z" fill="#90d0f8"/><path d="M42 104h1v1h-1Z" fill="#80c8f8"/><path d="M389 103h1v1h-1Z" fill="#e0f0f8"/><path d="M43 103h1v1h-1Z" fill="#d0e8f8"/><path d="M389 102h1v1h-1Z" fill="#48b0f8"/><path d="M43 102h1v1h-1Z" fill="#40a8f8"/><path d="M388 101h1v1h-1Z" fill="#a8d8f8"/><path d="M44 101h1v1h-1Z" fill="#98d0f8"/><path d="M388 100h1v1h-1Z" fill="#1098f8"/><path d="M387 100h1v1h-1Z" fill="#e8f0f8"/><path d="M45 100h1v1h-1Z" fill="#e0f0f8"/><path d="M44 100h1v1h-1Z" fill="#1098f8"/><path d="M387 99h1v1h-1Z" fill="#48b0f8"/><path d="M45 99h1v1h-1Z" fill="#40a8f8"/><path d="M386 98h1v1h-1Z" fill="#90d0f8"/><path d="M46 98h1v1h-1Z" fill="#80c8f8"/><path d="M385 97h1v1h-1Z" fill="#d0e8f8"/><path d="M47 97h1v1h-1Z" fill="#c8e8f8"/><path d="M385 96h1v1h-1Z" fill="#30a8f8"/><path d="M47 96h1v1h-1Z" fill="#28a0f8"/><path d="M40 96h1v1h-1Z" fill="#f8f8f8"/><path d="M384 95h1v1h-1Z" fill="#70c0f8"/><path d="M48 95h1v1h-1Z" fill="#68c0f8"/><path d="M383 94h1v1h-1Z" fill="#b0e0f8"/><path d="M49 94h1v1h-1Z" fill="#b0d8f8"/><path d="M383 93h1v1h-1Z" fill="#1898f8"/><path d="M382 93h1v1h-1Z" fill="#e8f0f8"/><path d="M50 93h1v1h-1Z" fill="#e0f0f8"/><path d="M49 93h1v1h-1Z" fill="#1098f8"/><path d="M382 92h1v1h-1ZM50 92h1v1h-1Z" fill="#48b0f8"/><path d="M381 91h1v1h-1ZM51 91h1v1h-1Z" fill="#78c8f8"/><path d="M380 90h1v1h-1ZM52 90h1v1h-1Z" fill="#b0d8f8"/><path d="M380 89h1v1h-1Z" fill="#1098f8"/><path d="M379 89h1v1h-1ZM53 89h1v1h-1Z" fill="#d8e8f8"/><path d="M52 89h1v1h-1Z" fill="#1098f8"/><path d="M379 88h1v1h-1ZM53 88h1v1h-1Z" fill="#30a8f8"/><path d="M378 87h1v1h-1ZM54 87h1v1h-1Z" fill="#58b8f8"/><path d="M377 86h1v1h-1ZM55 86h1v1h-1Z" fill="#90d0f8"/><path d="M376 85h1v1h-1ZM56 85h1v1h-1Z" fill="#c0e0f8"/><path d="M376 84h1v1h-1Z" fill="#1898f8"/><path d="M375 84h1v1h-1ZM57 84h1v1h-1Z" fill="#d8e8f8"/><path d="M56 84h1v1h-1Z" fill="#1898f8"/><path d="M375 83h1v1h-1Z" fill="#28a0f8"/><path d="M374 83h1v1h-1ZM58 83h1v1h-1Z" fill="#e0f0f8"/><path d="M57 83h1v1h-1Z" fill="#28a0f8"/><path d="M374 82h1v1h-1ZM58 82h1v1h-1Z" fill="#30a8f8"/><path d="M373 81h1v1h-1ZM59 81h1v1h-1Z" fill="#40a8f8"/><path d="M372 80h1v1h-1ZM60 80h1v1h-1Z" fill="#50b0f8"/><path d="M371 79h1v1h-1ZM61 79h1v1h-1Z" fill="#68c0f8"/><path d="M370 78h1v1h-1ZM62 78h1v1h-1Z" fill="#78c8f8"/><path d="M369 77h1v1h-1ZM63 77h1v1h-1Z" fill="#90d0f8"/><path d="M368 76h1v1h-1ZM64 76h1v1h-1Z" fill="#a8d8f8"/><path d="M367 75h1v1h-1ZM65 75h1v1h-1Z" fill="#c0e0f8"/><path d="M366 74h1v1h-1ZM66 74h1v1h-1Z" fill="#c8e8f8"/><path d="M366 73h1v1h-1Z" fill="#1898f8"/><path d="M365 73h1v1h-1ZM67 73h1v1h-1Z" fill="#d0e8f8"/><path d="M66 73h1v1h-1Z" fill="#1898f8"/><path d="M365 72h1v1h-1Z" fill="#20a0f8"/><path d="M364 72h1v1h-1Z" fill="#e0f0f8"/><path d="M67 72h1v1h-1Z" fill="#20a0f8"/><path d="M364 71h1v1h-1ZM68 71h1v1h-1Z" fill="#28a0f8"/><path d="M363 70h1v1h-1ZM69 70h1v1h-1ZM362 69h1v1h-1ZM70 69h1v1h-1Z" fill="#38a8f8"/><path d="M361 68h1v1h-1Z" fill="#28a0f8"/><path d="M360 68h1v1h-1Z" fill="#e0f0f8"/><path d="M71 68h1v1h-1Z" fill="#28a0f8"/><path d="M360 67h1v1h-1Z" fill="#20a0f8"/><path d="M359 67h1v1h-1ZM73 67h1v1h-1Z" fill="#d0e8f8"/><path d="M72 67h1v1h-1Z" fill="#20a0f8"/><path d="M359 66h1v1h-1Z" fill="#1898f8"/><path d="M358 66h1v1h-1ZM74 66h1v1h-1Z" fill="#c8e8f8"/><path d="M73 66h1v1h-1Z" fill="#1898f8"/><path d="M357 65h1v1h-1ZM75 65h1v1h-1Z" fill="#c0e0f8"/><path d="M356 64h1v1h-1ZM76 64h1v1h-1Z" fill="#a8d8f8"/><path d="M355 63h1v1h-1ZM77 63h1v1h-1Z" fill="#90d0f8"/><path d="M354 62h1v1h-1ZM78 62h1v1h-1Z" fill="#78c8f8"/><path d="M353 61h1v1h-1ZM79 61h1v1h-1Z" fill="#68c0f8"/><path d="M352 60h1v1h-1ZM80 60h1v1h-1Z" fill="#50b0f8"/><path d="M351 59h1v1h-1ZM81 59h1v1h-1Z" fill="#40a8f8"/><path d="M350 58h1v1h-1Z" fill="#30a8f8"/><path d="M349 58h1v1h-1ZM83 58h1v1h-1Z" fill="#e0f0f8"/><path d="M82 58h1v1h-1Z" fill="#30a8f8"/><path d="M349 57h1v1h-1Z" fill="#28a0f8"/><path d="M348 57h1v1h-1ZM84 57h1v1h-1Z" fill="#d8e8f8"/><path d="M83 57h1v1h-1Z" fill="#28a0f8"/><path d="M348 56h1v1h-1Z" fill="#1898f8"/><path d="M347 56h1v1h-1ZM85 56h1v1h-1Z" fill="#c0e0f8"/><path d="M84 56h1v1h-1Z" fill="#1898f8"/><path d="M346 55h1v1h-1ZM86 55h1v1h-1Z" fill="#90d0f8"/><path d="M345 54h1v1h-1ZM87 54h1v1h-1Z" fill="#58b8f8"/><path d="M344 53h1v1h-1Z" fill="#30a8f8"/><path d="M343 53h1v1h-1ZM89 53h1v1h-1Z" fill="#d8e8f8"/><path d="M88 53h1v1h-1Z" fill="#30a8f8"/><path d="M343 52h1v1h-1Z" fill="#1098f8"/><path d="M342 52h1v1h-1ZM90 52h1v1h-1Z" fill="#b0d8f8"/><path d="M89 52h1v1h-1Z" fill="#1098f8"/><path d="M341 51h1v1h-1ZM91 51h1v1h-1Z" fill="#78c8f8"/><path d="M340 50h1v1h-1Z" fill="#48b0f8"/><path d="M339 50h1v1h-1ZM93 50h1v1h-1Z" fill="#e0f0f8"/><path d="M92 50h1v1h-1Z" fill="#48b0f8"/><path d="M339 49h1v1h-1Z" fill="#1098f8"/><path d="M338 49h1v1h-1ZM94 49h1v1h-1Z" fill="#b0d8f8"/><path d="M93 49h1v1h-1Z" fill="#1098f8"/><path d="M337 48h1v1h-1ZM95 48h1v1h-1Z" fill="#68c0f8"/><path d="M336 47h1v1h-1Z" fill="#28a0f8"/><path d="M335 47h1v1h-1ZM97 47h1v1h-1Z" fill="#c8e8f8"/><path d="M96 47h1v1h-1Z" fill="#28a0f8"/><path d="M334 46h1v1h-1ZM98 46h1v1h-1Z" fill="#80c8f8"/><path d="M333 45h1v1h-1Z" fill="#40a8f8"/><path d="M332 45h1v1h-1ZM100 45h1v1h-1Z" fill="#e0f0f8"/><path d="M99 45h1v1h-1Z" fill="#40a8f8"/><path d="M332 44h1v1h-1Z" fill="#1098f8"/><path d="M331 44h1v1h-1ZM101 44h1v1h-1Z" fill="#98d0f8"/><path d="M100 44h1v1h-1Z" fill="#1098f8"/><path d="M330 43h1v1h-1Z" fill="#40a8f8"/><path d="M329 43h1v1h-1Z" fill="#d8e8f8"/><path d="M103 43h1v1h-1Z" fill="#d0e8f8"/><path d="M102 43h1v1h-1Z" fill="#40a8f8"/><path d="M328 42h1v1h-1ZM104 42h1v1h-1Z" fill="#80c8f8"/><path d="M327 41h1v1h-1Z" fill="#30a8f8"/><path d="M326 41h1v1h-1Z" fill="#c8e8f8"/><path d="M106 41h1v1h-1Z" fill="#c0e0f8"/><path d="M105 41h1v1h-1Z" fill="#28a0f8"/><path d="M325 40h1v1h-1Z" fill="#70c0f8"/><path d="M107 40h1v1h-1Z" fill="#68c0f8"/><path d="M96 40h1v1h-1Z" fill="#f8f8f8"/><path d="M324 39h1v1h-1Z" fill="#20a0f8"/><path d="M323 39h1v1h-1Z" fill="#b0e0f8"/><path d="M109 39h1v1h-1Z" fill="#a8d8f8"/><path d="M108 39h1v1h-1Z" fill="#1898f8"/><path d="M322 38h1v1h-1Z" fill="#48b0f8"/><path d="M321 38h1v1h-1ZM111 38h1v1h-1Z" fill="#d0e8f8"/><path d="M110 38h1v1h-1Z" fill="#48b0f8"/><path d="M320 37h1v1h-1Z" fill="#70c0f8"/><path d="M112 37h1v1h-1Z" fill="#68b8f8"/><path d="M319 36h1v1h-1Z" fill="#1098f8"/><path d="M318 36h1v1h-1ZM114 36h1v1h-1Z" fill="#90d0f8"/><path d="M113 36h1v1h-1Z" fill="#1098f8"/><path d="M317 35h1v1h-1Z" fill="#28a0f8"/><path d="M316 35h1v1h-1ZM116 35h1v1h-1Z" fill="#b8e0f8"/><path d="M115 35h1v1h-1Z" fill="#28a0f8"/><path d="M315 34h1v1h-1Z" fill="#50b0f8"/><path d="M314 34h1v1h-1ZM118 34h1v1h-1Z" fill="#d8e8f8"/><path d="M117 34h1v1h-1Z" fill="#50b0f8"/><path d="M313 33h1v1h-1Z" fill="#60b8f8"/><path d="M312 33h1v1h-1ZM120 33h1v1h-1Z" fill="#d8e8f8"/><path d="M119 33h1v1h-1ZM311 32h1v1h-1Z" fill="#60b8f8"/><path d="M310 32h1v1h-1ZM122 32h1v1h-1Z" fill="#d8e8f8"/><path d="M121 32h1v1h-1ZM309 31h1v1h-1Z" fill="#60b8f8"/><path d="M308 31h1v1h-1ZM124 31h1v1h-1Z" fill="#e0f0f8"/><path d="M123 31h1v1h-1Z" fill="#60b8f8"/><path d="M307 30h1v1h-1Z" fill="#70c0f8"/><path d="M306 30h1v1h-1ZM126 30h1v1h-1Z" fill="#e0f0f8"/><path d="M125 30h1v1h-1Z" fill="#70c0f8"/><path d="M305 29h1v1h-1Z" fill="#68b8f8"/><path d="M304 29h1v1h-1ZM128 29h1v1h-1Z" fill="#d8e8f8"/><path d="M127 29h1v1h-1Z" fill="#68b8f8"/><path d="M303 28h1v1h-1Z" fill="#50b0f8"/><path d="M302 28h1v1h-1ZM130 28h1v1h-1Z" fill="#c0e0f8"/><path d="M129 28h1v1h-1Z" fill="#50b0f8"/><path d="M301 27h1v1h-1Z" fill="#40a8f8"/><path d="M300 27h1v1h-1ZM132 27h1v1h-1Z" fill="#a8d8f8"/><path d="M131 27h1v1h-1Z" fill="#38a8f8"/><path d="M299 26h1v1h-1Z" fill="#28a0f8"/><path d="M298 26h1v1h-1Z" fill="#98d0f8"/><path d="M134 26h1v1h-1Z" fill="#90d0f8"/><path d="M133 26h1v1h-1Z" fill="#20a0f8"/><path d="M296 25h1v1h-1Z" fill="#78c8f8"/><path d="M295 25h1v1h-1Z" fill="#d8f0f8"/><path d="M136 25h1v1h-1Z" fill="#78c0f8"/><path d="M135 25h1v1h-1Z" fill="#1898f8"/><path d="M294 24h1v1h-1Z" fill="#48b0f8"/><path d="M293 24h1v1h-1Z" fill="#a8d8f8"/><path d="M139 24h1v1h-1Z" fill="#a0d8f8"/><path d="M138 24h1v1h-1Z" fill="#40a8f8"/><path d="M291 23h1v1h-1Z" fill="#70c0f8"/><path d="M290 23h1v1h-1Z" fill="#d0e8f8"/><path d="M141 23h1v1h-1Z" fill="#70c0f8"/><path d="M140 23h1v1h-1Z" fill="#1098f8"/><path d="M289 22h1v1h-1Z" fill="#38a8f8"/><path d="M288 22h1v1h-1ZM144 22h1v1h-1Z" fill="#98d0f8"/><path d="M143 22h1v1h-1Z" fill="#38a8f8"/><path d="M286 21h1v1h-1Z" fill="#58b8f8"/><path d="M285 21h1v1h-1Z" fill="#a8d8f8"/><path d="M146 21h1v1h-1ZM283 20h1v1h-1Z" fill="#58b8f8"/><path d="M282 20h1v1h-1Z" fill="#a8d8f8"/><path d="M149 20h1v1h-1ZM280 19h1v1h-1Z" fill="#58b8f8"/><path d="M279 19h1v1h-1Z" fill="#a8d8f8"/><path d="M152 19h1v1h-1Z" fill="#58b8f8"/><path d="M276 18h1v1h-1Z" fill="#a0d8f8"/><path d="M275 18h1v1h-1ZM157 18h1v1h-1Z" fill="#e8f0f8"/><path d="M155 18h1v1h-1Z" fill="#58b8f8"/><path d="M154 18h1v1h-1Z" fill="#1098f8"/><path d="M273 17h1v1h-1Z" fill="#78c8f8"/><path d="M272 17h1v1h-1Z" fill="#c0e0f8"/><path d="M159 17h1v1h-1Z" fill="#78c8f8"/><path d="M158 17h1v1h-1Z" fill="#38a8f8"/><path d="M271 16h1v1h-1Z" fill="#1098f8"/><path d="M269 16h1v1h-1Z" fill="#a0d8f8"/><path d="M268 16h1v1h-1ZM164 16h1v1h-1Z" fill="#e8f0f8"/><path d="M162 16h1v1h-1Z" fill="#58b8f8"/><path d="M161 16h1v1h-1Z" fill="#1098f8"/><path d="M267 15h1v1h-1Z" fill="#30a8f8"/><path d="M265 15h1v1h-1Z" fill="#a0d8f8"/><path d="M264 15h1v1h-1Z" fill="#d8f0f8"/><path d="M168 15h1v1h-1Z" fill="#d8e8f8"/><path d="M166 15h1v1h-1Z" fill="#68b8f8"/><path d="M165 15h1v1h-1Z" fill="#28a0f8"/><path d="M263 14h1v1h-1Z" fill="#1898f8"/><path d="M261 14h1v1h-1Z" fill="#88d0f8"/><path d="M260 14h1v1h-1Z" fill="#c8e8f8"/><path d="M172 14h1v1h-1Z" fill="#c0e0f8"/><path d="M170 14h1v1h-1Z" fill="#50b0f8"/><path d="M169 14h1v1h-1Z" fill="#1898f8"/><path d="M258 13h1v1h-1Z" fill="#40a8f8"/><path d="M256 13h1v1h-1Z" fill="#98d0f8"/><path d="M255 13h1v1h-1Z" fill="#c8e8f8"/><path d="M176 13h1v1h-1Z" fill="#98d0f8"/><path d="M174 13h1v1h-1Z" fill="#40a8f8"/><path d="M252 12h1v1h-1Z" fill="#50b0f8"/><path d="M250 12h1v1h-1Z" fill="#a8d8f8"/><path d="M249 12h1v1h-1Z" fill="#d8f0f8"/><path d="M182 12h1v1h-1Z" fill="#a8d8f8"/><path d="M180 12h1v1h-1Z" fill="#50b0f8"/><path d="M179 12h1v1h-1Z" fill="#28a0f8"/><path d="M246 11h1v1h-1Z" fill="#50b0f8"/><path d="M244 11h1v1h-1Z" fill="#90d0f8"/><path d="M242 11h1v1h-1Z" fill="#d0e8f8"/><path d="M189 11h1v1h-1Z" fill="#b0d8f8"/><path d="M187 11h1v1h-1Z" fill="#70c0f8"/><path d="M185 11h1v1h-1Z" fill="#30a8f8"/><path d="M240 10h1v1h-1Z" fill="#1098f8"/><path d="M238 10h1v1h-1Z" fill="#50b0f8"/><path d="M237 10h1v1h-1Z" fill="#70c0f8"/><path d="M235 10h1v1h-1Z" fill="#98d0f8"/><path d="M233 10h1v1h-1ZM199 10h1v1h-1Z" fill="#b8e0f8"/><path d="M197 10h1v1h-1Z" fill="#98d0f8"/><path d="M193 10h1v1h-1Z" fill="#30a8f8"/><path d="M192 10h1v1h-1Z" fill="#1098f8"/><path d="M228 9h1v1h-1Z" fill="#20a0f8"/><path d="M224 9h1v1h-1ZM208 9h1v1h-1Z" fill="#50b0f8"/><path d="M204 9h1v1h-1Z" fill="#20a0f8"/><path d="M203 9h1v1h-1Z" fill="#1098f8"/></g></svg>